<?xml version="1.0" encoding="UTF-8"?> <svg xmlns="http://www.w3.org/2000/svg" xmlns:xlink="http://www.w3.org/1999/xlink" viewBox="0 0 5034.54 1812.96"> <defs> <style>.a{fill:url(#a);}</style> <linearGradient id="a" x1="-1520.34" y1="-1585.71" x2="3514.2" y2="-1585.71" gradientUnits="userSpaceOnUse"> <stop offset="0" stop-color="#ccc"></stop> <stop offset="0.79" stop-color="#c00"></stop> </linearGradient> </defs> <path class="a" d="M-1404.25-1793.39l6.82,9.54a729.29,729.29,0,0,1,93.88-51.24c26.63-11.05,58.11-13.72,80.29,8.07,10.17,9.77,19.78,19.72,28,31.27s14.17,23.71,20,36.37c13.42,27.8.35,55-20.45,74.6-26.33,23.24-53.54,45.1-82,65.69l-.23.16a1028.59,1028.59,0,0,1-89.46,56.3c-27.17,14.94-57.37,14.7-80.93-6.48-11-10.36-21.52-20.9-30.51-33.12-8.68-11.79-15.31-24.52-21.64-37.68-12.89-28.4-2.41-56.72,19.42-77.44a687.8,687.8,0,0,1,83.43-66.34l.23-.16-6.82-9.54m0,0-.24.15a693.56,693.56,0,0,0-85.66,67.91c-24.94,24.35-39.7,59.35-23.23,92.76A286.63,286.63,0,0,0-1490.6-1593a304.77,304.77,0,0,0,32.13,34.87c27.38,26.09,65.18,24.64,97,7.77a1031.35,1031.35,0,0,0,91.49-57.85l.23-.17c29.09-21.13,56.91-43.61,83.78-67.5,25.42-23.09,39.24-56.47,24.33-89.35a246.81,246.81,0,0,0-20.91-38,237.07,237.07,0,0,0-29.24-32.79c-26.56-25-64.34-23.54-96-9.69a734.07,734.07,0,0,0-96.39,52.38Zm782.91-359.2c1.9,3.14,2.86,4.71,4.79,7.86a927,927,0,0,1,100.34-23.4c25.88-3.9,54.88-3.18,74.79,16.11,7.52,7.82,14.94,15.57,20.66,24.87a105.6,105.6,0,0,1,12.28,27.09c8.51,24.35-14.51,39.18-32.77,49q-44.42,20.48-90.09,37.74l-.25.09q-47.85,17.52-96.84,31.2c-27.11,7.39-57.09,6.34-78.53-13.67a157.64,157.64,0,0,1-24.25-28.09c-6.5-9.5-10.53-20-14.52-30.64-8.22-25.68,12.68-44.28,34.16-54.15a802.89,802.89,0,0,1,94.76-36.1l.26-.08c-1.93-3.15-2.89-4.72-4.79-7.86m0,0-.26.08A822.42,822.42,0,0,0-719-2115.76c-25.44,11.69-51.09,34.38-41,65a190.57,190.57,0,0,0,15.38,32.28A168.16,168.16,0,0,0-719-1988.84c24.78,24.53,62.55,24.62,94.16,16.28q50.18-14.25,99-32.34l.25-.09q46.74-17.87,92-39c20.84-11.22,49.69-30.57,39-58.61a110.51,110.51,0,0,0-12.81-28.23,209.19,209.19,0,0,0-21.54-26c-22.91-22.8-59.31-24.35-89.35-19.42a949,949,0,0,0-103.05,23.67ZM-946-2209.34c1.77,3,2.65,4.5,4.45,7.52A982.43,982.43,0,0,1-837-2230.21c25.64-4.87,56.21-6.4,76.26,13.36,7.32,7.82,14.5,15.57,19.79,25A99.61,99.61,0,0,1-730-2164c7.33,25.77-17.69,41.35-36.79,51.76q-46.73,22-94.71,40.78l-.26.1q-49.68,18.95-100.5,34.28c-26.7,7.91-57.5,8.75-79.07-11.32-8.46-8.47-16.81-16.88-23.18-27.13-6.13-9.2-9.68-19.33-13.19-29.71-7.59-27.08,16.85-43.81,37.34-55.39a894.9,894.9,0,0,1,98.54-41.08l.28-.09c-1.8-3-2.68-4.52-4.45-7.52m0,0-.27.09a903.15,903.15,0,0,0-101.25,42c-24.22,13.5-54.11,34.34-44.77,66.38,3.08,11.29,8.23,21.13,14,31.22a216.64,216.64,0,0,0,24.48,28.61c24.85,24.61,63.71,22.41,94.76,13.53q52-15.86,102.74-35.37l.26-.1q49.11-19.41,96.74-42c23.33-11.75,51.52-32,43.86-62A104.79,104.79,0,0,0-726.92-2196a181.53,181.53,0,0,0-20.63-26.18c-23-23.42-61.44-22.13-91.14-16.05A1009.79,1009.79,0,0,0-946-2209.34Zm583.43-140c1.23,2.67,1.85,4,3.1,6.68,33.26-4.81,66.55-8,100.12-9.63,23.55-.68,51.35,1.44,68.14,20.12,7.08,8.1,11.49,14.43,15.21,21.85a74.32,74.32,0,0,1,6.91,22.6c4.13,22.12-24.55,30.26-39.91,35q-46.27,11.67-93.07,20.88l-.26.05q-49.26,9.33-98.91,15.85c-25.14,3.24-54.36,1.79-73.33-17.08a99.71,99.71,0,0,1-18.18-23.89A75.8,75.8,0,0,1-501-2282c-4.49-24.3,25.88-34.2,43.34-39.91a975.45,975.45,0,0,1,97.91-20.69l.27,0c-1.25-2.67-1.87-4-3.1-6.68m0,0-.27,0A996,996,0,0,0-463.4-2328.2c-21.71,7-56.12,18.95-52.07,47.94a77,77,0,0,0,8.77,26.49,106.11,106.11,0,0,0,19.23,25.21c22.54,22.77,58.13,23.94,88,20.34q50.85-6.86,101.18-16.54l.26,0q47.86-9.55,95.12-21.63c18.47-5.71,52.26-15.84,47.51-41.86a78.31,78.31,0,0,0-7.22-23.57c-4.24-8.48-9.25-15.3-15.86-22.89-20.13-22.47-53.23-24.4-81.31-24.24-34.45,1.62-68.59,4.8-102.73,9.68Zm270.76,94.76c31.18-3.82,62.26-6.05,93.66-6.9,23.25-.14,49.08,3,66.59,19.8,7.63,7.5,12.53,13.3,16.9,20.06a74.45,74.45,0,0,1,9.11,20.48c6.69,19.89-20.95,27.26-34.14,31.35q-43.15,10.47-86.7,18.86l-.24,0q-46.42,8.57-93.18,14.63c-24.69,3.11-52.44,1.23-71.66-16.25a106.58,106.58,0,0,1-19.42-22.82,79.79,79.79,0,0,1-10-24.16c-6.49-22.92,21.74-32.27,37.81-37.46A862.11,862.11,0,0,1-92-2254.52l.25,0m-3.62-6.39-.25,0a868,868,0,0,0-93.52,17.82c-19.52,6.13-53,17.84-45.45,45.06a84.3,84.3,0,0,0,10.64,25.5,113.25,113.25,0,0,0,20.51,24.13c22.87,21.13,56.63,22.79,86,19.29q47.9-6.39,95.33-15.37l.24,0q44.58-8.78,88.64-19.63c15.37-4.7,48.39-14,40.61-37.37a78,78,0,0,0-9.56-21.31c-5-7.7-10.53-13.95-17.66-21-20.77-20-51.91-24-79.46-23.92-32.18.73-64.11,2.93-96.06,6.78Zm350.67-17.6c28.08.15,55.9,1.65,83.85,4.39,21.34,2.41,44.24,8.15,60.32,23.27a132.84,132.84,0,0,1,16.26,17.6,68.77,68.77,0,0,1,9.29,16.71c6.95,16.5-20.52,18.31-30,19.66q-39.88,3.15-79.83,5.1h-.22q-43.38,1.91-86.75,2.3c-22.58,0-48.54-2.73-66-18.63-7.87-7.15-12.83-12.78-17.13-19.33a60.51,60.51,0,0,1-8.41-19.79c-4.7-19.68,22.82-23.82,35.69-26.2a808.87,808.87,0,0,1,82.76-5.09h.22m-3.32-5.53h-.22a821.38,821.38,0,0,0-84.87,5.08c-14.68,2.59-49.38,8.25-43,31.63a63.74,63.74,0,0,0,8.85,20.9c4.94,7.56,10.62,13.67,18.05,20.42,21.05,18.67,52.24,22.35,79.27,22.1q44.49-.59,88.9-2.68h.22q40.93-2.12,81.76-5.42c9.25-1.24,46.32-4.61,35.26-23.48a93,93,0,0,0-10.44-17.68,150.48,150.48,0,0,0-16.45-18.19c-18.93-18-46.36-24.87-71.55-27.94-28.6-2.91-57.07-4.51-85.82-4.73ZM52.1-2377.28c29.78-.65,59.31.13,89,2.27,21.33,1.84,45.66,7.22,59.9,24.65,6.29,7.65,10.23,13.45,13.57,20a66.35,66.35,0,0,1,6.28,19.34c4.12,18.89-23.92,21.92-35.87,23.89q-42.37,4.47-84.88,7.12h-.24q-45.63,2.56-91.3,3.12c-23,.24-49.73-3.06-66.45-20.52-7.22-7.87-11.62-14-15.18-21.22a59.47,59.47,0,0,1-6-21.65c-2.63-21.45,27.35-26.53,41.85-29.39,29.63-4,59.16-6.54,89-7.65h.23m-2.55-6.12h-.24c-30.66,1.1-61,3.66-91.37,7.76-17.73,3.4-53.37,9.91-50.35,35.42a62.84,62.84,0,0,0,6.3,22.81c4.11,8.27,9.2,15,16,22.38,19.78,20.91,52.56,24.72,79.8,24.4q46.82-.72,93.53-3.47h.23q43.53-2.83,86.87-7.46c13.81-2.2,47.47-6.18,42.6-28.42a70,70,0,0,0-6.64-20.2,114.17,114.17,0,0,0-14.21-21c-17.34-20.59-45.71-27.3-71.38-29.74-30.42-2.26-60.67-3.09-91.17-2.47ZM344-2371c23.43.71,46.63,2.53,69.9,5.38,18.18,2.53,37.1,9.19,48.59,24.31a122.83,122.83,0,0,1,12.23,18.65,81,81,0,0,1,6.72,17.79c4.36,15.14-13.1,19.72-24.55,20.86-21.35,1.88-42.64,3-64.07,3.38h-.18c-26.9-1-53.73-3.7-80.51-6.36-21.11-2.29-45.39-7.24-60.3-23.73-6.67-7.37-10.74-13.07-14.08-19.6a56.1,56.1,0,0,1-5.81-19.46c-2.25-19,23.11-21,35.89-22.33,25.42-.81,50.59,0,76,1.11H344m-2.63-5.9h-.19c-26-1.2-51.82-2-77.87-1.12-14.58,1.44-46.67,4.46-43.29,27a58.89,58.89,0,0,0,6.07,20.48c3.83,7.52,8.52,13.71,14.8,20.64,18.26,19.24,47,25.67,72.5,28.19,27.36,2.65,55.13,6,82.64,6.33h.18c21.89-.47,43.64-1.61,65.44-3.56,11.49-2.08,36.21-6.88,29.11-24.87a85.71,85.71,0,0,0-7-18.56A130.81,130.81,0,0,0,471-2341.94c-13.64-18-36.27-26.16-57.89-29.27-23.87-3-47.67-4.94-71.72-5.72ZM-884.95-1586.78A679.27,679.27,0,0,1-794.86-1637c28.08-12.55,58.94-10.66,82.73,9.68,11.52,10,22.59,20.16,32.42,31.87,9.55,11.37,17.38,23.73,25,36.44,16.2,26,8.9,53.76-10.73,75.32a846.66,846.66,0,0,1-74.8,67.77l-.21.17a801.12,801.12,0,0,1-85.25,57.68c-28.5,15.67-60.56,14.19-85.69-7.31a269.54,269.54,0,0,1-36.35-35.06,257.5,257.5,0,0,1-27.64-40.3c-16.72-27.58-10.8-57.8,11-80.45a618.11,618.11,0,0,1,79.16-65.41l.23-.15m-8.38-10.48-.23.15A629.85,629.85,0,0,0-975-1530.36c-26,26.81-33,63.77-13.27,96.51a273.25,273.25,0,0,0,29.13,42.39,285.87,285.87,0,0,0,38.35,37c30.33,25,68.59,27.56,102.73,8.64A812.92,812.92,0,0,0-731-1405.29l.21-.17a865.37,865.37,0,0,0,76.28-69.76c24-25.26,30.83-59.45,12.62-90.07a341.28,341.28,0,0,0-26.09-38,353.28,353.28,0,0,0-33.89-33.35c-28.15-24-65.67-26.38-98.91-11.74a695.21,695.21,0,0,0-92.59,51.12Zm505-274a768.28,768.28,0,0,1,91.69-34.37c26.29-7.17,54.22-7.06,76.44,10.49a262.89,262.89,0,0,1,26.14,24.79c7.41,8.51,13,18.12,18.53,27.88,12.61,22.3-1.57,43-19.94,56.32-25.53,18-51.6,34.77-78.59,50.48l-.22.12c-28.39,16-57.36,30.54-87.18,43.72-26.93,11.62-56.39,11-80-7.47-10.83-8.91-21.17-18-30.2-28.78A174,174,0,0,1-493-1760.84c-12.76-24.6-.95-48.23,20.68-62.86a650.44,650.44,0,0,1,83.72-47.44l.23-.1m-6.58-8.36-.24.1a664.72,664.72,0,0,0-86.12,48.25c-26,17.53-39.94,46-24.84,75.48a183.06,183.06,0,0,0,22.55,34.57,276.63,276.63,0,0,0,31.91,30.45c27.5,22.78,64.32,22,95.87,8.78,30.46-13.65,60-28.68,89-45.25l.22-.13c27.54-16.19,54.16-33.54,80.17-52.1,20.74-15.66,39.15-41.39,23.66-67.27a229.07,229.07,0,0,0-19.32-29,276.84,276.84,0,0,0-27.28-25.88c-25.63-20.69-60.87-21.54-91.37-12.76a785.6,785.6,0,0,0-94.22,34.76Zm-375.2-20.08A780.85,780.85,0,0,1-674-1936.43c26.87-7.41,57.62-7.5,79,13A188.4,188.4,0,0,1-568.73-1895a171.58,171.58,0,0,1,18.24,31.89c12.56,24.7-3,47.75-22.74,62.57-27,19.07-54.64,36.8-83.3,53.25l-.23.13a989.17,989.17,0,0,1-91.6,45c-28.26,11.83-58.65,9.87-82.1-10.73-10.87-10-21.22-20.17-30.11-32-8.41-11.21-14.79-23.32-20.86-35.89-12.22-26.68.29-52,23.22-67.83a679.07,679.07,0,0,1,87.81-50.89l.25-.11m-6.51-9.2-.25.11a695.79,695.79,0,0,0-90.29,51.85c-26.38,18.9-43.68,49.69-27.85,81.37a229.66,229.66,0,0,0,22,37.79,296.21,296.21,0,0,0,31.78,33.81c27.29,25.35,65.35,26.17,98.42,12.75a1008.61,1008.61,0,0,0,93.57-46.45l.24-.13c29.25-17,57.47-35.26,85-54.92,23.21-17.69,41.8-45.45,27-74.83a259.48,259.48,0,0,0-19-33.23,198.77,198.77,0,0,0-27.39-29.72c-25.62-23.55-62.44-25-94.45-15.69a800.77,800.77,0,0,0-98.82,37.29ZM-293.92-2081A878.07,878.07,0,0,1-199-2102.14c25.12-3.58,52.59-2.34,72.67,14.93,7.66,7,15.25,14,21.39,22.5a107,107,0,0,1,13.49,24.37c10,22.06-12.33,35.76-28.55,44.66-27.85,12.85-56,24.76-84.62,35.73l-.24.09q-45.39,16.88-91.86,30.19c-26.27,7.35-55.14,6.52-76.67-11.85a225.94,225.94,0,0,1-24.86-26.26c-6.74-8.88-11.19-18.78-15.61-28.93-10.16-24,10.46-41.76,30.29-51a739,739,0,0,1,89.4-33.21l.24-.07m-5.07-7.41-.24.07a754.21,754.21,0,0,0-91.9,33.71c-23.4,12.34-48.07,31.69-36.37,61.28A188.56,188.56,0,0,0-411-1962.82,240.46,240.46,0,0,0-384.71-1935c24.89,22.59,61.35,22.39,91.93,14q47.59-13.9,93.88-31.38l.23-.09q43.88-17,86.41-37c19.23-10.5,45.48-27.47,34-53.32a104.77,104.77,0,0,0-14.08-25.34,137.21,137.21,0,0,0-22.33-23.49c-23.21-20.48-57.59-22.53-86.81-18.07A898.59,898.59,0,0,0-299-2088.41ZM46.1-2029.07a855,855,0,0,1,89.29-19c24.08-3.27,50.05-2.27,70.57,12.13a132.3,132.3,0,0,1,22.09,18.75,95.8,95.8,0,0,1,14.58,20.33c11.62,18.79-11.44,31.06-24.79,38.1q-39.34,17.26-79.48,32.38l-.22.08q-43,15.74-86.76,28.68c-24.68,7.17-52.53,7.52-74.06-8.14-8.91-6.92-17.71-13.79-25-22.45a103.42,103.42,0,0,1-16.33-25.16c-11.73-22.17,9.45-36.4,26.38-45.47A693.42,693.42,0,0,1,45.87-2029l.23-.07m-5.3-6.37-.23.06a707.79,707.79,0,0,0-85.87,30.53c-21.92,9.5-43.7,29.21-31.69,54.69,4.52,9.83,10.64,18.15,17.27,26.61a225.22,225.22,0,0,0,26.46,23.78c25.16,19.36,59.84,17.74,88.8,9.55q44.85-13.5,88.68-29.84l.22-.08q41.07-15.69,81.19-33.53c15.78-8.25,43-23.27,29.49-45.42a100,100,0,0,0-15.24-21.1,140.56,140.56,0,0,0-23.11-19.55c-23.61-17.54-56.39-18.38-84.32-14.77a854.69,854.69,0,0,0-91.65,19.07Zm356.06-63.29c28.35-2.89,56.57-4.29,85.06-4.49,22.85.16,47.15,3.45,66.94,15.69a158.87,158.87,0,0,1,20.94,14.85,79.25,79.25,0,0,1,13.65,14.95c11.66,14.66-16.88,20.4-25.33,22.63q-39.23,7.81-78.59,14.8l-.22,0q-42.62,7.35-85.41,13.4c-23.62,3.26-49.39,2.48-70.07-10.61a115.58,115.58,0,0,1-22.07-17.6,76.67,76.67,0,0,1-13.64-19c-10-18.43,15.51-26.43,28-30.41a713.47,713.47,0,0,1,80.54-14.17l.22,0m-4.77-4.92-.22,0a726.63,726.63,0,0,0-82.62,14.25c-14.42,4.44-46.26,14.78-33.62,36.7A81.31,81.31,0,0,0,290-2032.5a122.55,122.55,0,0,0,23.25,18.65c24.55,15.78,56,16.44,84,12.47q43.85-6.37,87.46-14.12l.21,0q40.32-7.28,80.46-15.41c7.53-1.94,46.79-11.1,29.51-26.86a126.06,126.06,0,0,0-15.35-15.56,205.19,205.19,0,0,0-21-15.5c-22.68-15.07-52.81-18.56-79.36-19-29.18.07-58.08,1.39-87.13,4.24ZM135-2169c29.58-3.63,59.07-5.71,88.86-6.5,22.78-.28,48,2.85,66.38,17.52,8.31,6.61,13.78,11.7,18.86,17.64a74.8,74.8,0,0,1,11.39,18c9.41,17.5-18.47,24.68-29.28,28q-40.8,9.9-81.91,18.21l-.23,0q-44.21,8.63-88.71,15.16c-24.12,3.46-50.82,2.14-70.74-13.35A111.06,111.06,0,0,1,28.78-2095a79.78,79.78,0,0,1-12-22.18c-8.61-21,18.06-30.23,32.58-35a780.26,780.26,0,0,1,85.4-16.74l.24,0m-4.21-5.8-.23,0a793.54,793.54,0,0,0-87.68,16.88c-17.73,5.7-49.18,17.23-39.16,42.2a84.54,84.54,0,0,0,12.65,23.46,117.75,117.75,0,0,0,22,21.91c23.6,18.63,56.26,20,84.86,15.78q45.6-6.91,90.78-15.94l.23,0q42.09-8.67,83.77-19c12.53-3.8,45.81-12.72,34.83-33.32a78.52,78.52,0,0,0-12-18.66,137.74,137.74,0,0,0-19.75-18.42c-22.21-17.26-51.92-21.24-79.25-21.22-30.54.68-60.76,2.7-91.1,6.3Zm331.45-13.47c21.92-.76,43.69-.61,65.6.31,18.45,1.08,37.31,5.8,52,17.56a159.08,159.08,0,0,1,17,15.25,97.73,97.73,0,0,1,11.7,15c10.55,12.78-8,17.51-16.22,19.74-19.31,2.91-38.6,5-58.07,6.57h-.16c-27.45,1.48-55.08,1.24-82.56,1.34-22.61-.1-47.65-2.54-66.54-16.21-8.58-6.21-14.14-11.1-19.19-16.81a62.15,62.15,0,0,1-10.88-17.24c-7.43-17.49,19.84-20.71,30.27-22.37,25.66-2.25,51.18-2.8,76.93-3.15h.17m-4.11-4.77H458c-26.41.28-52.56.79-78.88,3.07-12.07,1.9-45.5,6.29-36.41,27.06a64.82,64.82,0,0,0,11.41,18.24c5.8,6.61,12.1,11.92,20.19,17.79,22.67,16.09,52.8,19.3,79.85,19.17,28.19-.22,56.52-.14,84.68-1.69H539c19.88-1.59,39.57-3.79,59.28-6.8,11.61-1.86,29.85-9.15,19.19-23.58a102.45,102.45,0,0,0-12.24-15.68,169.46,169.46,0,0,0-17.75-16c-17.43-14-40-19.77-62-21.14-22.48-1-44.85-1.22-67.33-.45Zm-1757.84-19.59a1081.66,1081.66,0,0,1,105.65-39.5c23.62-6.94,55.47-14,76.35,3.59a83.43,83.43,0,0,1,18.9,21.68c4.53,7.54,7.35,15,9.9,25.82,5.82,25.86-20.52,42.35-39.47,53.51q-47.78,25.14-96.72,47.79l-.26.12q-50,22.71-101.05,42.72c-24.2,9.4-55.16,15.69-77.31-1.76-7.92-6.78-15.77-13.5-21.73-22.17-5.31-7.52-8.78-14.86-11.85-25.2-6.9-25.45,20.53-43.48,38.49-55.28a1011,1011,0,0,1,98.83-51.2l.27-.12m-4.09-6.06-.28.12A1037.42,1037.42,0,0,0-1405.54-2166c-21,13.7-54.67,36.14-46.07,66.14a81.25,81.25,0,0,0,12.54,26.38c6.32,9.1,14.56,16.19,22.92,23.3,26.52,20.77,63.69,13.08,92.6,2.17q52.26-20.55,103.32-43.82l.27-.12q50.1-23.22,98.85-49.06c22.36-13.14,53.86-33.51,47.11-64.12a84.73,84.73,0,0,0-10.3-27A88.28,88.28,0,0,0-1104-2255c-24.48-21.47-63.5-11.9-91.3-4.27a1111.3,1111.3,0,0,0-108.47,40.55ZM-610-2422.25c35.21-6.44,70.51-11.27,106.16-14.56,23.28-1.18,52.91-2.39,69.67,17.06,6.57,7.89,10.52,14.16,13.6,21.6,2.88,7.07,4.23,13.69,4.78,22.94,1.72,23.26-28.78,31.81-45.66,37.11q-49.39,13-99.32,23.59l-.27.05q-51.9,10.65-104.23,18.69c-25.11,2.84-54.84,4.92-74.44-14.27-6.43-6.21-12.86-14.35-16.78-22.45-3.65-7.35-5.53-14.26-6.36-23.79-2.42-24.35,31.17-34.54,48.49-40.54,34.34-10.08,68.95-18.5,104.08-25.38l.28-.05m-2.58-6.27-.28.05q-54.11,10.54-106.91,26c-21.08,7.13-60.34,19.73-58.2,48.62a65.33,65.33,0,0,0,6.8,25c4.18,8.55,10.93,17.07,17.75,23.64,22.65,22.53,60.11,21.22,89.29,17.05q53.56-8.34,106.61-19.32l.27-.06q51.06-10.9,101.49-24.3c20.71-6.46,55.55-16.91,54.4-44.37-.48-8.39-1.59-15.65-5-24-3.51-8.52-8-15.27-14.15-22.69-19.73-23.06-55.73-22-83.16-20.51q-54.85,5-108.95,14.89Zm463.24-49.38c31.85-1.94,63.58-2.41,95.47-1.41,21.4,1.71,47.48,4.54,60.54,24.16,5.45,8.13,8.68,14.36,11.12,21.5a65.68,65.68,0,0,1,3.32,21.21c.73,20.81-27.91,24.84-42.45,27.5q-45.58,5.91-91.34,9.61H-113q-48.46,3.63-97,5c-23,.61-51.41-1.76-67.46-20.36-6.63-8.06-10.49-14.35-13.34-21.69-2.65-7-3.7-13.4-3.51-22.19.74-22.58,31.52-28.11,48.36-31.76,32-5.3,64-9.14,96.3-11.51l.25,0m-1.82-6.32-.26,0c-33.18,2.45-66,6.4-98.86,11.85-20.43,4.35-56.67,11.54-58.16,38.2a57.92,57.92,0,0,0,3.76,23.3c3.3,8.44,7.84,15.26,14.11,22.84,19,22.23,53.89,25,81,24.25q49.74-1.48,99.33-5.23l.25,0q46.84-3.87,93.41-9.93c17.56-3.14,51.32-8.27,50.49-32.8a69.27,69.27,0,0,0-3.52-22.19c-2.79-8.19-6.51-15-11.6-22.62-15.89-23-46.37-27.12-72.13-29.1-32.68-1-65.2-.56-97.84,1.43Zm318.45-1.39A768,768,0,0,1,248.4-2479c20.11,3.07,41.26,11,52,29.39a120,120,0,0,1,10.78,22.19,79.63,79.63,0,0,1,4.3,20.8c2.45,19-21.84,20.68-34.68,21.91-26.53.8-53,.86-79.55.34h-.22q-43.25-1.18-86.34-4.33c-21.06-1.72-47-6.22-60.39-24.58-5.82-8-9.17-14.19-11.58-21.32-2.25-6.76-3.06-12.93-2.73-21.32.5-20.75,28.21-24.37,43.25-26.59,27.94-2.39,55.7-3.47,83.73-3.11h.22m-1.69-6.52h-.21c-28.76-.33-57.22.81-85.87,3.32-18.26,2.63-51.38,7.44-52.12,32.07a58.71,58.71,0,0,0,2.87,22.39c2.78,8.19,6.71,14.89,12.21,22.41,16.54,21.36,47.13,27.39,72.62,29.23q44.25,3.09,88.56,4.33h.22c27.18.54,54.3.48,81.48-.34,14.77-1.3,44.56-3.69,41-26.17a92.51,92.51,0,0,0-4.76-21.92A131,131,0,0,0,310.38-2450c-13.05-21.79-37.75-31.49-61.81-35.38a779.26,779.26,0,0,0-83-6.73Zm340,209.74c1.24,2,1.87,3,3.13,5,21.31.49,42.41,1.9,63.61,4.13,17.16,1.81,35.15,8,47.43,20.53a134.05,134.05,0,0,1,13.87,16,83,83,0,0,1,8.77,15.39c7.68,13.69-10.91,16.7-19.31,18.44-19.26,1.83-38.47,2.95-57.81,3.49h-.16c-21.45.28-42.81-.15-64.24-1.14-18.74-1.14-38.53-5.79-52.9-18.6A108.25,108.25,0,0,1,432-2236a66.64,66.64,0,0,1-9.28-17.14c-5.69-14.74,12.39-20.91,23.73-21.44,20.71-1.9,41.29-2.78,62.08-2.75h.17c-1.26-2-1.89-3-3.13-5m0,0h-.17c-21.37-.07-42.51.8-63.8,2.72-13.25,1.22-35.77,7.91-28.64,25.85a70.17,70.17,0,0,0,9.79,18,115.31,115.31,0,0,0,16.88,17.84c17.24,15.26,41.14,20.82,63.56,22.15,21.94,1,43.8,1.37,65.75,1.05h.16c19.77-.59,39.4-1.77,59.07-3.68,11.36-1.21,30.6-6.65,22.89-22a87.86,87.86,0,0,0-9.19-16.06,143.89,143.89,0,0,0-14.5-16.8c-14.8-15.15-36-22.11-56.56-24.71-21.74-2.36-43.38-3.85-65.24-4.4Zm210.09,8.76c1.11,1.82,1.68,2.73,2.81,4.53,19.32,1.51,38.41,3.82,57.55,6.82,15.76,2.48,32.08,8.63,43.55,20.06a132.23,132.23,0,0,1,12.92,14.42,76.22,76.22,0,0,1,8.24,13.63c7.11,11.54-10.4,15.13-17.7,15-17.7.69-35.32.82-53,.48h-.15c-19.48-.67-38.87-1.94-58.29-3.71-16.61-1.71-35.1-6.59-47.48-18.56a101.16,101.16,0,0,1-14.21-15.6,61.76,61.76,0,0,1-8.21-15.48c-6.42-14.29,12.46-16.36,21.15-17.69a543.85,543.85,0,0,1,55.51.66h.15c-1.13-1.8-1.7-2.71-2.81-4.53m0,0h-.16c-19-1.14-37.92-1.45-57-.8-11.85-.12-31.36,5.61-25.5,21.33a64.86,64.86,0,0,0,8.63,16.32,107.73,107.73,0,0,0,15,16.44c15.33,14.11,36.79,20,57,22.13,19.9,1.76,39.75,3,59.71,3.66h.15c18.09.33,36.17.34,54.24-.61,8.11-1.19,29.76-3.37,21-17.86a79.54,79.54,0,0,0-8.66-14.2,140.91,140.91,0,0,0-13.53-15.1c-13.81-13.72-33.14-20.8-52-24.13-19.61-3.14-39.18-5.57-59-7.17Zm-146.11-93.51c.85,2.14,1.28,3.21,2.15,5.33,20.56,2,40.82,4.88,61.12,8.65,16,3,32.76,10.42,42.62,23.91a116.72,116.72,0,0,1,10.7,16.88,73.77,73.77,0,0,1,5.85,15.81c4.72,14.25-13.15,15.68-22,16.9-19,.78-37.91.49-56.87-.18h-.16c-20.79-1-41.45-2.74-62.14-5-17.53-2.17-36.2-7.89-48-21.86a91.52,91.52,0,0,1-12.5-18.14,62.19,62.19,0,0,1-6-18c-2.72-15.16,14.65-20.5,26.65-20.34a603.94,603.94,0,0,1,60.62,1.42h.16c-.87-2.12-1.3-3.19-2.15-5.33m0,0h-.16a613.39,613.39,0,0,0-62.28-1.6c-14.21.44-35.62,6-32.15,24.56a65.51,65.51,0,0,0,6.34,19,97.52,97.52,0,0,0,13.23,19.12c14.16,16.65,36.73,23.48,57.7,26,21.19,2.27,42.35,4,63.64,5H616c19.41.63,38.74.68,58.14.06,11.57-.51,30.71-4.27,26.16-20.16a77.46,77.46,0,0,0-6.15-16.48A124.66,124.66,0,0,0,683-2329.28c-11.88-16.25-31.64-24.78-50.79-28.77-20.81-4-41.57-7-62.66-9.09Zm203.94,24.43c.76,1.88,1.14,2.81,1.92,4.67,18.77,3,37.26,6.79,55.74,11.26,14.69,3.56,30,10.67,39.43,22.88a111.23,111.23,0,0,1,10,14.85,63.47,63.47,0,0,1,5.58,13.64c2.32,12.08-11.18,13.77-20.42,13-17.57-.63-35-1.75-52.54-3.33h-.14c-19-1.82-37.85-4.57-56.68-7.63-16.09-2.8-32.32-8.77-43.26-21.4A84.61,84.61,0,0,1,702-2311.17a54.68,54.68,0,0,1-5.26-15.9c-3.35-14.78,14.62-15.25,23.94-15.95a521.86,521.86,0,0,1,54.56,5l.15,0c-.78-1.86-1.16-2.79-1.92-4.67m0,0-.15,0a530.76,530.76,0,0,0-56-5.24c-12.13-1-31.56,3.17-28.86,19.25a57.64,57.64,0,0,0,5.53,16.78,89.79,89.79,0,0,0,11.75,17.25c12.75,15.2,33.06,22.24,52,25.52,19.32,3.08,38.63,5.64,58.08,7.63l.15,0c17.89,1.59,35.8,2.87,53.76,3.26,8.28-.55,29.64-.44,24.26-15.45a66.93,66.93,0,0,0-5.87-14.21,118.74,118.74,0,0,0-10.52-15.52c-11.37-14.66-29.51-22.9-47-27.51-18.92-4.66-37.86-8.61-57.1-11.76Zm139,93.73c18.36,2.25,36.54,5.42,54.69,9,15.06,3,30.63,8.81,42.21,19.17a133.83,133.83,0,0,1,12.75,12.68,68.53,68.53,0,0,1,8.2,11.74c4.51,7.83-.89,11.49-17,11.53-17-.32-34-1.08-50.95-2.23h-.14c-18.5-1.36-36.91-3.51-55.29-5.93-16.07-2.3-32.19-7.33-44.68-18.07a98.09,98.09,0,0,1-13.4-14,55.83,55.83,0,0,1-7.8-13.61c-6.09-12.08,12.1-14.5,19.34-13.92,17.41.51,34.6,1.75,51.91,3.63l.14,0m-2.72-4-.14,0a499.08,499.08,0,0,0-53.24-3.85c-8.38.68-30.63,1.45-23.3,16.78a58.71,58.71,0,0,0,8.19,14.36,103.91,103.91,0,0,0,14.11,14.78c14.65,13,34.65,18.86,53.64,21.55q28.27,3.65,56.66,5.92h.14c17.4,1.13,34.74,1.87,52.17,2.16,5.56-.41,29.43-.75,20.2-13.75a72.79,72.79,0,0,0-8.63-12.24,144.85,144.85,0,0,0-13.38-13.26c-13.92-12.4-32.44-19.17-50.4-23-18.6-3.74-37.21-6.92-56-9.41Zm189.53,30.69c18.45,3,36.75,6.81,55,10.86,15,3.35,30.64,8.72,43,18.14a139.54,139.54,0,0,1,13,11,61.65,61.65,0,0,1,8.32,9.93c4.56,6.55-1.09,9.16-17.53,8.24q-25.89-1.87-51.66-4.76l-.14,0c-18.47-2.13-36.85-4.92-55.2-7.95-15.64-2.72-31.41-7.54-44.11-17.38a98,98,0,0,1-13.22-12.34,49.78,49.78,0,0,1-7.74-11.71c-3.87-7.84,2.42-11.31,18.77-10.26,17.22,1.51,34.25,3.64,51.33,6.27l.15,0m-2.74-3.39-.14,0c-17.5-2.74-35-5-52.6-6.56-5.73,0-30.2-1.49-22.57,12.39a52,52,0,0,0,8.11,12.36,102.73,102.73,0,0,0,13.9,13c14.9,11.91,34.41,17.56,52.9,20.75q28.23,4.59,56.59,8l.15,0q26.43,2.88,52.93,4.75c7.29,0,26.11,2.78,20.9-9.84a64.63,64.63,0,0,0-8.76-10.33,150,150,0,0,0-13.66-11.45c-14.86-11.25-33.48-17.55-51.42-21.79-18.7-4.21-37.44-8-56.33-11.3Zm-130.95-77c18.14,3.7,36,8.26,53.86,13.19,14.06,3.89,28.92,10.36,38.85,21.4a105.88,105.88,0,0,1,10.09,12.72,52.31,52.31,0,0,1,5.68,11.43c2.81,7.53-3.55,10.44-20,9.22-17.14-1.61-34.18-3.61-51.23-6l-.14,0c-18.26-2.64-36.38-6-54.45-9.73-15.09-3.22-30.44-8.94-41.2-20.44a78,78,0,0,1-10.65-14.35,45.44,45.44,0,0,1-5.08-13.62c-3.17-12.51,15-12.84,22.31-11.7,17.41,2,34.56,4.59,51.77,7.87l.14,0m-1.87-4-.14,0c-17.61-3.45-35.23-6.39-53.09-8.23-9.47-1.45-29.69-.44-26.86,14.14a47.54,47.54,0,0,0,5.33,14.38,82.91,82.91,0,0,0,11.2,15.16c12.53,13.86,31.7,20.62,49.47,24.39,18.55,3.72,37.12,7,55.83,9.79l.14,0q26.19,3.57,52.47,6c9.07.08,25.78,2.73,23.75-11a54.56,54.56,0,0,0-6-11.9,113,113,0,0,0-10.58-13.29c-11.89-13.09-29.64-21-46.38-25.7-18.27-5.14-36.59-9.75-55.15-13.73Zm189,45.14q27.9,6.7,55.42,14.66c14.16,4,29.35,9.75,40.45,19.76a100.26,100.26,0,0,1,10.45,10.68,40.43,40.43,0,0,1,5.82,9.35c2.85,6.09-3.95,7.91-21.06,5.8q-26.6-3.69-53-8.31l-.14,0c-18.57-3.32-37-7.28-55.41-11.48-14.77-3.5-30.06-8.8-41.39-19.29a73.05,73.05,0,0,1-10.68-12.35,35.78,35.78,0,0,1-5.12-11.36c-.12-11.21,14.36-9.39,22.21-7.75,17.57,2.91,35,6.37,52.32,10.29l.14,0m-1.9-3.29-.15,0c-17.78-4.1-35.59-7.83-53.62-10.71-6.18-.51-30-4.82-26.69,9.36a37.42,37.42,0,0,0,5.36,12,77.26,77.26,0,0,0,11.22,13.05c13.22,12.68,32.24,18.94,49.66,23q28.31,6.38,56.82,11.6l.14,0c18.06,3.13,36.14,6,54.32,8.37,7.79.58,25.6,5.13,25.13-6.91a41.91,41.91,0,0,0-6.14-9.72,106.73,106.73,0,0,0-11-11.15c-13.31-11.94-31.5-18.68-48.33-23.72-18.82-5.46-37.7-10.57-56.74-15.21ZM643-2117c20.18-.89,40.26-1,60.45-.35,17.9.84,35.94,5.18,50.88,15.43a179.42,179.42,0,0,1,18.14,13.77,110.85,110.85,0,0,1,13.17,13.71c10.79,9.87-3.14,17.8-12.18,18.55-17.58,2.9-35.12,5.1-52.86,6.76h-.15c-20,1.5-40,2.27-60.06,2.49-19.16-.09-38.63-4.07-55-14.41a162.32,162.32,0,0,1-20.23-14.58,93.66,93.66,0,0,1-14-14.91c-12.26-12.45,6.85-18,15.12-20.35,18.83-2.91,37.6-4.89,56.61-6.11H643m-4.5-4.28h-.15c-19.54,1.22-38.83,3.22-58.19,6.18-12.69,1.2-29.79,10.45-18.26,24.48a97.46,97.46,0,0,0,14.81,15.68,172.23,172.23,0,0,0,21.36,15.36c19.6,12.31,43.1,17.11,66,17.21,20.53-.26,40.94-1.08,61.42-2.65h.14c18.09-1.69,36.12-3.74,54-7,9.21-2.77,28.26-9.35,14.4-22.18a115,115,0,0,0-13.79-14.32,191.61,191.61,0,0,0-19-14.44c-17.79-12.19-39.43-17.48-60.75-18.54-20.72-.68-41.31-.65-62,.23Zm202.56-3.11c18.88-.21,37.67.61,56.49,1.87,16.74,1.17,33.91,5.86,48,15.21a176.67,176.67,0,0,1,17.09,12.55,102.37,102.37,0,0,1,12.33,12.31c7.27,8.39,3.46,13.45-12.06,15.71-16.74,2-33.43,3.41-50.27,4.35h-.14c-18.78.93-37.56.88-56.35.52-17.72-.59-35.65-4.58-50.68-14.33a150.34,150.34,0,0,1-18.35-13.55,86.89,86.89,0,0,1-12.66-13.68C764-2114,780.24-2120.65,788.54-2121c17.47-1.89,34.8-3,52.37-3.42h.14m-4.15-3.91h-.14c-18,.37-35.88,1.29-53.76,3.41-8.75,2.05-30.2,7.4-17,21.11a91.27,91.27,0,0,0,13.33,14.41,158.5,158.5,0,0,0,19.35,14.29c18,11.63,39.61,16.42,60.79,17.11,19.26.33,38.44.15,57.69-.65h.14c17.22-1,34.29-2.48,51.41-4.56,7.46-1.79,27.88-7.06,14.3-18.79a107.55,107.55,0,0,0-12.93-12.84,189.63,189.63,0,0,0-17.92-13.14c-16.91-11.21-37.27-16.57-57.3-18.28-19.32-1.35-38.56-2.09-57.93-2.06Zm-162.66-66.95c19.82.21,39.48,1.24,59.22,2.94,16.79,1.49,34.14,6.82,47.38,17.53a154.55,154.55,0,0,1,15.57,14,91.27,91.27,0,0,1,10.71,13.59c9.24,10.81-7.24,16.51-15.1,16.76-17.75,1.86-35.44,3.09-53.27,3.83h-.15c-19.87.49-39.66.33-59.53-.35-18.07-.87-36.69-5.14-51.4-16.17a126.35,126.35,0,0,1-17.19-15,73.91,73.91,0,0,1-11.07-15.11c-9.4-13.51,10.09-17.27,18.34-19.08,18.79-1.88,37.46-2.84,56.33-3h.16m-3.66-4.39h-.16c-19.38.14-38.56,1.09-57.86,3-11.91.57-31,7.94-22.13,23a77.11,77.11,0,0,0,11.66,15.9A133.4,133.4,0,0,0,620.23-2142c17.63,13.15,40.1,18.27,61.73,19.3,20.33.65,40.59.77,60.93.23H743c18.2-.75,36.36-1.85,54.46-4,8.38-1.87,29.46-6.29,17.89-20a95.65,95.65,0,0,0-11.24-14.18,164.58,164.58,0,0,0-16.3-14.69c-15.92-12.86-36.47-18.95-56.54-21.08-20.25-1.81-40.4-2.91-60.73-3.17Zm200,9.27c18.64,1,37.15,2.9,55.67,5.27,15.94,2.07,32.3,7.29,45.21,17.09a158.63,158.63,0,0,1,15,12.59,85.29,85.29,0,0,1,10.33,12c5.93,8.09,1.32,12.44-14.53,13.62-16.93.86-33.81,1.22-50.77,1.16h-.14c-18.71-.17-37.37-1.22-56-2.55-16.54-1.37-34.41-5.63-47.81-16a121,121,0,0,1-15.89-13.7,69.1,69.1,0,0,1-10.23-13.6c-8.45-11.43,9.26-15.93,16.8-15.8,17.47-.76,34.77-.74,52.24-.08h.15m-3.46-3.93H867c-17.89-.76-35.71-1-53.6,0-8.35,1.34-30.66,4.41-20.24,19A72,72,0,0,0,803.9-2161a127.53,127.53,0,0,0,16.73,14.45c16.42,12.21,37.29,17.44,57.38,19.1,19.13,1.32,38.22,2.18,57.39,2.48h.14c17.36,0,34.63-.38,52-1.3,6.25-1,29-3.89,17.25-16.27A88.69,88.69,0,0,0,993.9-2155a169.62,169.62,0,0,0-15.72-13.17c-15.53-11.74-35-17.77-54-20.55-19-2.49-37.93-4.39-57-5.56Zm164.2,73.2c18.44.61,36.78,2.09,55.14,3.94,16.36,1.68,33.09,6.19,47.22,14.77a182.18,182.18,0,0,1,16.77,11.2,95.66,95.66,0,0,1,12,10.79c7,7.31,3,11.4-12.46,12.74-16.59,1.07-33.13,1.68-49.75,1.9h-.14c-18.34.15-36.66-.5-55-1.42-16.67-1-34.34-4.8-48.58-14a146.7,146.7,0,0,1-17.39-12.31,81.69,81.69,0,0,1-12-12.24c-6.81-8.35-2.23-13.2,13.57-14.53,16.85-1,33.57-1.18,50.45-.85h.14m-4-3.48h-.14c-17.31-.38-34.46-.18-51.74.76-6.89,1.17-29.4,5-16.32,17.5a85.64,85.64,0,0,0,12.6,12.89,154.87,154.87,0,0,0,18.31,13c17.34,10.8,38,15.47,58.24,16.7,18.76.91,37.53,1.54,56.31,1.34h.14c17-.27,34-.93,50.94-2.06,5.84.06,28.34-5.16,14.82-15.22a99.86,99.86,0,0,0-12.59-11.25,196.92,196.92,0,0,0-17.6-11.72c-17-10.27-36.9-15.47-56.47-17.76-18.81-1.94-37.6-3.5-56.5-4.17Zm191,13.28c18.86,1.41,37.61,3.55,56.36,6,16.58,2.18,33.49,6.46,48.32,14.37,7.15,3.82,12,6.68,16.88,9.88a91.81,91.81,0,0,1,11.86,9.3c6.88,6.24,2.37,9.34-13.78,9.71q-25.74.15-51.43-.68h-.14c-18.68-.67-37.31-2-55.94-3.5-16.52-1.51-33.93-5.11-48.4-13.63a150.55,150.55,0,0,1-17.06-11,78.76,78.76,0,0,1-11.68-10.7q-9.93-10.89,13.87-11.46c17,0,34,.63,51,1.73h.14m-4-3.05h-.14c-17.44-1.16-34.79-1.84-52.26-1.87-4.19.39-30.35,2.51-16.63,13.79a81.85,81.85,0,0,0,12.26,11.29,158.59,158.59,0,0,0,17.92,11.6c17.56,10,38,14.47,58,16.27q28.65,2.3,57.32,3.47h.14q26.35.78,52.69.59c6.66-.54,26.89-.09,16.46-11.59a96,96,0,0,0-12.46-9.69c-5.54-3.65-11-6.76-17.74-10.33-17.8-9.45-38-14.44-57.82-17.26-19.21-2.54-38.42-4.67-57.73-6.26Zm-154.56-60.72c18.43,1.79,36.74,4.37,55,7.29,15.77,2.54,31.93,7.48,45.29,16.42a165.2,165.2,0,0,1,15.06,11.09,79.53,79.53,0,0,1,10.33,10.35c5.91,6.93,1.15,10.27-14.79,10.49-16.93-.08-33.8-.55-50.71-1.37h-.14c-18.43-1-36.81-2.66-55.16-4.59-16.39-1.89-32.72-6.26-46.51-15.56a121.65,121.65,0,0,1-15.42-12.28,65.17,65.17,0,0,1-10-11.94c-5.42-8.09,0-12.28,16-12.47,17,.23,33.88,1.13,50.84,2.57h.14m-3.42-3.43-.14,0c-17.39-1.51-34.67-2.48-52.11-2.75-6,.52-30.06,1.83-19.27,15a68.43,68.43,0,0,0,10.47,12.6,129.73,129.73,0,0,0,16.21,13c16.26,11.27,36.37,16.36,55.77,18.58q28.25,2.89,56.54,4.57h.14c17.32.8,34.6,1.25,51.94,1.3,7.61-.61,26.2-.06,17.63-12.53a84.5,84.5,0,0,0-10.86-10.79,178.93,178.93,0,0,0-15.82-11.59c-16.06-10.69-35.31-16.44-54.14-19.73-18.74-3.05-37.48-5.63-56.36-7.62Zm192.36,25c19.15,2.63,38.19,5.72,57.22,9.14,16.22,2.93,32.82,7.56,47.22,15.76a180.67,180.67,0,0,1,15.45,9.67,76,76,0,0,1,10.42,8.8c5.88,5.83.56,8.2-16.29,7.49q-26.6-1.5-53.12-3.88h-.14q-28.53-2.8-56.91-6.61c-16.39-2.32-32.84-6.51-47.15-15.08A128.14,128.14,0,0,1,1190-2139a61.62,61.62,0,0,1-10-10.29c-5.4-6.89,0-10,16.41-9.23,17.46,1.18,34.8,2.91,52.17,5.05l.15,0m-3.48-3-.14,0c-17.78-2.26-35.56-4.19-53.45-5.29-7.62.1-26.75-2-19.68,11.14a65,65,0,0,0,10.46,10.85,136.46,136.46,0,0,0,16.23,11.44c16.9,10.4,37,15.27,56.5,18q29.11,3.84,58.33,6.65h.15c18.12,1.6,36.26,3,54.44,3.87,6,0,27.25,2.74,19.45-8.94a79.72,79.72,0,0,0-10.94-9.17,191.17,191.17,0,0,0-16.25-10.1c-17.27-9.8-37.12-15.23-56.49-18.93s-39-6.77-58.61-9.51Zm-818.4-316.33a658.18,658.18,0,0,1,66.78,10.85c17.14,4,34.46,12.5,42.81,28.83A114.73,114.73,0,0,1,545-2413a80.58,80.58,0,0,1,3.31,18.71c1.28,15.48-15.31,19.15-27.56,19.6-20.92.45-41.72.15-62.62-.84h-.17c-22.76-1.24-45.38-3.6-68-6.51-18.71-2.65-38.91-9.51-49.73-26.11a92.29,92.29,0,0,1-11-21.5,70,70,0,0,1-3.77-21.39c-.67-18,18.56-23.51,33.32-23.94a605.76,605.76,0,0,1,67.89,2.21h.18m-1.51-6.37h-.17a613.72,613.72,0,0,0-69.8-2.42c-17.08.59-41.59,7.14-40.19,28.91a74.08,74.08,0,0,0,4,22.54,97.86,97.86,0,0,0,11.63,22.66c13,19.74,37.48,28,59.83,31.1,23.16,2.9,46.29,5.09,69.59,6.47h.17c21.36,1,42.61,1.23,64,.72,13.88,0,34.76-5.39,32.71-23.35a85.17,85.17,0,0,0-3.46-19.51,123.32,123.32,0,0,0-8.85-21c-9.88-19.39-30.61-29.82-51-34.7a666.43,666.43,0,0,0-68.5-11.38Zm223.09,36.57c19.81,3.73,39.2,8.39,58.57,14,15,4.29,30.35,13.2,37.5,27.6a104,104,0,0,1,7.28,17.68,68.3,68.3,0,0,1,2.72,16.14c1.58,14.51-15.39,14.42-24.95,15-18.65-.7-37.21-2.42-55.75-4.52l-.15,0c-20-2.57-39.89-5.79-59.74-9.61C598-2369.64,579.56-2377,571.14-2392a82.82,82.82,0,0,1-8.93-19.41,61.87,61.87,0,0,1-2.62-18.88c.14-15.28,16.91-19.88,29.62-18.73a550.1,550.1,0,0,1,59.09,6.43l.15,0m-1.11-5.59-.16,0a556.83,556.83,0,0,0-60.69-6.77c-15.21-.73-35.65,3.88-35.72,22.62a65.57,65.57,0,0,0,2.78,19.93,88.13,88.13,0,0,0,9.46,20.47c10.78,17.89,31.9,26.55,51.48,30.54,20.33,3.83,40.66,7.06,61.19,9.63l.15,0c19,2.08,37.94,3.79,57,4.46,12,.39,30.76-1.75,29.64-17.82a71.92,71.92,0,0,0-2.86-16.82,111.87,111.87,0,0,0-7.6-18.49c-8.62-17.34-26.83-27.61-44.65-33.19-19.85-5.8-39.72-10.66-60-14.56Zm199.48,49.58c18.31,4.67,36.27,10.09,54.15,16.18,13.59,4.61,28,12.74,35.11,25.72a89.4,89.4,0,0,1,6.88,15.1,52.82,52.82,0,0,1,2.61,13.48c-.71,11.93-14.18,12.08-23.54,10.56-17.48-2.06-34.81-4.58-52.16-7.57l-.14,0c-18.5-3.29-36.8-7.48-55-12-15-3.9-30.25-10.92-38.82-24.45a72,72,0,0,1-7.91-17,50.35,50.35,0,0,1-2.14-16.16c-.16-14.94,17-13.83,27-13.68a448.62,448.62,0,0,1,53.82,9.84l.14,0m-.94-4.75-.14,0a514.88,514.88,0,0,0-55.24-10.29c-12.53-2.15-32,.42-32.57,16.54a53,53,0,0,0,2.26,17.08,76.67,76.67,0,0,0,8.34,18c9.88,16.23,29.05,24.61,46.68,29.16,18.71,4.56,37.47,8.59,56.41,12.08l.14,0c17.73,3,35.5,5.72,53.39,7.58,8.85.19,29.42,2.52,28-12.58a55,55,0,0,0-2.77-14,95.68,95.68,0,0,0-7.19-15.77c-8.5-15.38-25.7-25.32-41.84-30.9-18.31-6.34-36.71-12-55.47-16.84Zm188.24,55.27c18.05,5.29,35.81,11.37,53.49,17.78,13.2,5.06,26.85,11.7,35.19,23.56a73.43,73.43,0,0,1,6.92,12.55,36.13,36.13,0,0,1,2.62,10.91c-1.95,10.46-15.78,8.2-23.77,6.51q-26.11-4.48-52-10.12l-.14,0c-18.1-4-36-8.81-53.84-13.89-14-4.13-28.74-10.6-37.4-22.93a59.85,59.85,0,0,1-7.52-14.6,36.57,36.57,0,0,1-2-13.44c.36-13.23,18.12-9.76,26-9,17.6,3.57,34.9,7.8,52.2,12.63l.14,0m-.88-3.92-.14,0c-17.7-5.06-35.46-9.63-53.53-13.15-9.76-2.34-30.38-3.66-31.32,10.85a38.84,38.84,0,0,0,2,14.22,64,64,0,0,0,7.91,15.43c9.5,14.83,28.87,22.71,44.94,27.38q27.45,7.71,55.21,14l.14,0c17.66,3.8,35.37,7.33,53.22,10.18,6.58.63,28.9,5.48,28.32-7.76a37.56,37.56,0,0,0-2.78-11.33,77.44,77.44,0,0,0-7.25-13.09c-9.37-14-26.62-22.65-42-28.28-18.11-6.66-36.31-12.85-54.78-18.47ZM1285-2192.8c1.11,1.14,1.67,1.71,2.8,2.85,19.54,3.78,39,7.95,58.38,12.39,15.67,3.59,31.95,8.48,45.66,17.1a144,144,0,0,1,13.47,9.39,53.62,53.62,0,0,1,8.41,8.26c4.51,5.39-1.87,7-19.56,5.26-18.41-2-36.76-4.42-55.09-7.06l-.15,0q-29.06-4.39-57.92-9.77c-15.83-3-31.94-7.61-45.47-16.65a101.74,101.74,0,0,1-13.45-10.72,43.6,43.6,0,0,1-7.81-9.87c-3.88-6.52,2.62-8.86,19.63-6.89,18,2.29,35.89,5.28,53.75,8.55l.15,0c-1.13-1.14-1.69-1.71-2.8-2.85m0,0-.15,0c-18.29-3.41-36.6-6.52-55.06-8.9-7.72-.5-26.51-4.72-23.55,8.33a45.54,45.54,0,0,0,8.19,10.42,106.56,106.56,0,0,0,14.12,11.33c15.93,11,35.74,16.3,54.49,19.88q29.63,5.45,59.38,9.88l.15,0c18.79,2.66,37.6,5.12,56.47,7.11,6.17.37,26.88,5.07,23.38-6.28a56.27,56.27,0,0,0-8.85-8.6,153.92,153.92,0,0,0-14.16-9.8c-16.44-10.27-35.93-16-54.63-20.51q-29.79-6.92-59.78-12.86Zm207.26,40.45c1.15.94,1.73,1.42,2.9,2.36q32.52,6.39,64.88,13.5c17,3.69,34.56,8.12,50.13,16a150.68,150.68,0,0,1,14.1,8,44.84,44.84,0,0,1,8.36,6.83c4.31,4.39-3.34,5.24-23.23,2.71q-30.73-4.16-61.36-9l-.17,0q-31.83-5.26-63.5-11.34c-16.68-3.28-33.73-7.56-48.71-15.87a109,109,0,0,1-14-9.18,38.16,38.16,0,0,1-7.94-8.14c-3.87-5.28,3.35-6.61,22-3.89q29.73,4.68,59.26,10.36l.17,0c-1.17-.94-1.75-1.42-2.9-2.36m0,0-.17,0c-20.18-3.89-40.39-7.51-60.69-10.74-6.9-.76-27.26-6.6-26.37,4.72a39.85,39.85,0,0,0,8.33,8.6,116.74,116.74,0,0,0,14.7,9.71c17.69,10.1,38.52,15.08,58.32,19q32.48,6.16,65.09,11.5l.17,0q31.39,4.95,62.9,9.16c6.35.62,28.16,6.28,27.82-3.25a47.69,47.69,0,0,0-8.79-7.1,161,161,0,0,0-14.83-8.36c-18.67-9.5-39.7-14.66-60-19.23-22.11-4.87-44.24-9.64-66.46-14Zm-147.72-66.45c.77,1.07,1.16,1.6,2,2.66q30.26,7.42,60.29,15.66c15,4.05,31.09,9,43.89,18.09a96.92,96.92,0,0,1,10.94,8.83,29.55,29.55,0,0,1,5.78,7.49c2.69,4.81-5.11,5.69-24,2.83q-29-4.7-57.81-10.23l-.15,0q-29.84-6-59.42-12.91c-15.14-3.65-31-8.47-43.55-18.06a70.61,70.61,0,0,1-11-10.44,26.5,26.5,0,0,1-5.16-9.24c-2-6,5.88-7.45,23.84-4.21q28.23,5.51,56.18,12.19l.15,0c-.79-1.06-1.18-1.59-2-2.66m0,0-.16,0c-19.11-4.59-38.27-8.85-57.56-12.65-8.76-1.2-26.21-6.9-28.59,5.1a27.93,27.93,0,0,0,5.41,9.78,74.69,74.69,0,0,0,11.55,11c14.69,11.63,34.32,17.31,52.19,21.59q30.38,7,60.93,13.07l.16,0q29.57,5.63,59.25,10.35c7.68.9,26.21,6.47,28.64-3.38a30.47,30.47,0,0,0-6.09-7.78,101.5,101.5,0,0,0-11.49-9.21c-15.33-10.81-34.68-16.68-52.5-21.68q-30.78-8.48-61.74-16.22Zm218,51.66c.79.84,1.19,1.26,2,2.1,22.88,5.18,45.77,10.38,68.5,16.24,16.34,4.49,33.59,8.65,48.48,17.05a97.46,97.46,0,0,1,11.34,7.34,21.67,21.67,0,0,1,5.52,5.91c-4.72,6.15-21,.86-27.94-.27-21.86-4.05-43.77-7.75-65.62-11.88l-.17,0q-33.4-6.5-66.61-13.9c-16.23-3.68-33.27-8-47.65-16.75a73.26,73.26,0,0,1-11.61-8.64,19.19,19.19,0,0,1-5.16-7.31c4.3-7.82,20-2.39,27.29-1.22q31.82,6.33,63.45,13.42l.18,0c-.82-.84-1.22-1.26-2-2.1m0,0-.18,0q-32.43-7.29-65-13.9c-6.65-1.12-29.57-7.91-32.68,1.5a20,20,0,0,0,5.42,7.73,77.45,77.45,0,0,0,12.17,9.16c16.92,10.61,37.84,15.69,57,20q34,7.53,68.27,14.12l.18,0c22.38,4.2,44.86,7.81,67.22,12.09,7.61,1.27,29.74,8.38,33.37.25a22.3,22.3,0,0,0-5.81-6.16,103.17,103.17,0,0,0-11.88-7.65c-17.74-10-38.51-15-58-20.36-23.27-6.09-46.73-11.44-70.17-16.81ZM1729-2103.58q35.63,7.17,71.22,14.53c17.88,3.72,36.38,7.6,53.27,14.79,6.37,2.75,10.54,4.71,14.31,6.77a40.16,40.16,0,0,1,8.11,5.62c-1.58,6.46-20.74,1.62-26.25,1q-33.66-4.82-67.14-10.66l-.18,0c-23.36-4.22-46.58-9-69.85-13.63-18-3.44-36.83-7.37-53.57-15.23a125,125,0,0,1-14.7-7.89,33.26,33.26,0,0,1-7.93-6.68c1.65-7.61,20.32-2.22,26.21-1.46,22.17,3.92,44.24,8.41,66.31,12.84l.19,0m-2.94-2-.19,0c-22.63-4.57-45.24-9.33-68-13.22-7.51-1-28.79-7.21-31.33,1.77a34.88,34.88,0,0,0,8.33,7.07,133.23,133.23,0,0,0,15.43,8.33c20,9.45,42.46,14.1,64.08,18.21,23.87,4.61,47.66,9.54,71.59,13.84l.18,0q34.32,5.94,68.78,10.81c7.09.8,28.84,6.26,31.37-1.25a42.15,42.15,0,0,0-8.53-5.85c-4.33-2.35-9-4.5-15-7.06-20.23-8.56-42.29-13.18-63.7-17.66q-36.48-7.55-73-15Zm252.74,46q37.1,5.77,74.15,11.76c18.34,3,37.15,6,54.83,12,6.56,2.23,10.84,3.82,14.71,5.5a41.94,41.94,0,0,1,8.31,4.55c-2.4,5.33-21.75,1.43-27.45.94q-35.42-3.81-70.72-8.4l-.19,0q-37.28-5-74.39-11c-18.68-3.07-38-6.48-55.71-13.43a135.46,135.46,0,0,1-14.81-6.65,29.14,29.14,0,0,1-7.63-5.48c3.86-5.88,22-1.12,28.57-.31q35.1,5.12,70.14,10.54l.19,0m-3-1.61-.19,0q-35.91-5.59-71.87-10.9c-5.47-.71-32-6.81-34.25.33a29.86,29.86,0,0,0,8,5.79,143,143,0,0,0,15.54,7.05c21.22,8.39,44.32,12.45,66.74,16.12q38.06,6.07,76.26,11.17l.19,0q36.19,4.65,72.47,8.5c6.33.55,32.69,5.42,32.74-1.17a43.92,43.92,0,0,0-8.76-4.74c-4.45-1.91-9.29-3.64-15.45-5.72-21.16-7-43.58-10.7-65.52-14.29q-37.95-6.16-75.92-12.14Zm-167-49.72q36.2,7.23,72.34,14.68c16.91,3.68,34.58,6.92,50.43,14.11a99.69,99.69,0,0,1,11.63,6.09,18.25,18.25,0,0,1,5.51,4.91c-6.13,5.26-22.28.86-30-.09q-34.9-5.14-69.64-11.2l-.19,0q-36.16-6.51-72.11-14.06c-17.26-3.71-35.64-7.69-51.5-15.79a79.53,79.53,0,0,1-12-7.25c-2.67-2.06-4.13-3.74-4.94-5.76,7.17-5.58,22.67-.45,31.14.95q34.6,6.54,69.16,13.41l.19,0m-2-1.73-.19,0q-35.41-7.08-70.88-13.84c-8.16-1.39-30.72-8.25-37.36-1.19.73,1.85,2,3.63,5.2,6.09a84.85,84.85,0,0,0,12.65,7.68c19,9.77,41,14.51,61.72,19q36.86,7.71,73.91,14.33l.19,0q35.6,6.16,71.34,11.37c8.71,1.1,30.27,7.37,35.77,0a19.36,19.36,0,0,0-5.83-5.11,108.18,108.18,0,0,0-12.21-6.34c-18.89-8.54-40.11-12.48-60.22-16.84q-37-7.67-74.09-15.13Zm254.46,46.84q36.45,5.88,72.87,12c17,3,34.55,5.65,50.91,11.49a129.45,129.45,0,0,1,12.13,5,21.61,21.61,0,0,1,6,4c-6.06,4.38-22,.69-29.47,0q-35.33-4.15-70.56-9l-.19,0q-37.17-5.28-74.19-11.37c-17.77-3-36.49-6-53.28-12.9a84.2,84.2,0,0,1-12.28-6c-2.71-1.71-4.16-3.1-4.93-4.78,8.18-4.76,23.14-.48,32.23.71q35.28,5.33,70.52,11l.19,0m-2.12-1.43-.19,0q-36.11-5.82-72.25-11.34c-9.16-1.24-30.62-7.06-38.72-.89.69,1.54,2,3,5.17,5.06A88.54,88.54,0,0,0,1966-2068c20.14,8.31,42.53,11.91,63.89,15.48q38,6.21,76.09,11.57l.19,0q36.12,4.92,72.32,9.14c8.5.85,29.76,6.37,35.09,0a23,23,0,0,0-6.41-4.14c-3.53-1.69-7.55-3.26-12.75-5.15-19.49-6.93-40.46-10.14-60.74-13.71q-37.27-6.28-74.58-12.36Zm-649.53-27.33c20.08,2.28,40.07,5,60,8,17.35,2.73,35,6.69,51,14.1,7.35,3.41,12.35,5.93,17.22,8.71a88.14,88.14,0,0,1,11.76,7.95c6.69,5.27,1.34,7.41-16.18,6.8-18.44-.77-36.85-2-55.25-3.34H1478q-29.61-2.4-59.12-5.68c-16.91-2-34.62-5.46-49.88-13.37a162.75,162.75,0,0,1-17.13-9.71,77.1,77.1,0,0,1-11.59-9.22c-6.51-6.19-1.52-9,15.21-8.45,18,.82,36,2.37,53.94,4.22l.15,0m-4-2.64-.15,0c-18.39-1.93-36.77-3.56-55.24-4.43-6.41.12-27.6-1.9-18.2,10.19a80.7,80.7,0,0,0,12.16,9.74,174.46,174.46,0,0,0,18,10.25c18.44,9.3,39.34,13.59,59.71,16q30.26,3.28,60.58,5.71h.15c18.86,1.37,37.73,2.57,56.62,3.32,5,0,28.63,2.88,19.39-8.11a93,93,0,0,0-12.35-8.28c-5.59-3.17-11.19-5.92-18.11-9.11-19.19-8.83-40.26-13.61-61-16.94-20.47-3.11-41-5.92-61.52-8.29Zm214,27.92q33.21,4.54,66.27,9.95c18.59,3.12,37.48,7,55,14.07,7.63,3.08,12.75,5.33,17.64,7.77a81.68,81.68,0,0,1,11.52,6.81c6.35,4.44-.29,5.72-19.94,4.13q-30.69-2.73-61.32-6h-.16q-32.34-3.66-64.57-8c-17.9-2.49-36.17-6-52.83-13.3a188.7,188.7,0,0,1-17.47-8.55,75.87,75.87,0,0,1-11.52-7.86c-6.37-5.2-.61-7.11,17.81-5.63,19.84,1.83,39.61,4.08,59.37,6.63l.17,0m-4.1-2.28-.17,0c-20.24-2.64-40.49-5-60.81-6.88-4.86-.2-29.34-4.58-21.26,6.81a78.88,78.88,0,0,0,12.1,8.29,192.92,192.92,0,0,0,18.34,9c19.91,8.75,41.76,12.93,63.19,15.89q33,4.37,66.15,8.07l.17,0q31.39,3.35,62.84,6.12c7.9.41,19.09,2.56,26.59-1.64l-2.66-3.27a86.49,86.49,0,0,0-12.09-7.11c-5.61-2.78-11.36-5.24-18.54-8.12-21-8.43-43.66-13.12-65.94-16.89q-33.9-5.57-67.91-10.29Zm-170.34-54.64q31.17,4.95,62.14,10.82c17.22,3.34,34.83,7.56,50.71,15.24,6.9,3.34,11.54,5.79,16,8.45a70.22,70.22,0,0,1,10.38,7.45c5.72,4.87-.6,6.37-19.17,4.76q-29-2.78-58-6.29l-.16,0q-30.62-3.89-61.11-8.59c-17-2.72-34.1-6.76-49.46-14.7a141.79,141.79,0,0,1-15.8-9.48,59.21,59.21,0,0,1-10-8.73c-5.37-5.78.57-7.89,18.14-6.24,18.81,1.94,37.52,4.5,56.21,7.31l.16,0m-3.56-2.52-.15,0c-19.15-2.91-38.31-5.58-57.58-7.6-6.08-.3-27.69-4.59-21.7,7.54a61.42,61.42,0,0,0,10.52,9.22,150,150,0,0,0,16.59,10c18.17,9.65,39,14.34,59.2,17.54q31.27,4.77,62.64,8.7l.16,0q29.68,3.54,59.43,6.35c5,.26,28.78,5.06,23-5.67a73.17,73.17,0,0,0-10.91-7.77c-5.08-3-10.29-5.7-16.78-8.83-19-9.15-40.09-14.24-60.72-18.28q-31.77-6-63.66-11.21Zm224.33,37.81c23.27,3.84,46.53,7.7,69.62,12.48,18.3,3.9,37,8.17,54.3,15.41,7.11,3,11.84,5.15,16.29,7.44a67.23,67.23,0,0,1,10.17,6.29c5.45,4-1.89,4.74-22.17,2-21.68-2.95-43.39-5.66-65-8.69l-.18,0q-34-4.89-67.9-10.5c-18-3.06-36.56-6.87-53.33-14.44a163.5,163.5,0,0,1-16.36-8.3,56,56,0,0,1-10-7.36c-5.24-4.78,1.7-6,21.39-3.59q31.62,4.17,63.09,9.26l.17,0m-3.63-2.16-.18,0q-32.25-5.21-64.61-9.58c-8.39-.77-19.35-3.31-27.38.82l1.83,3.54a58.12,58.12,0,0,0,10.54,7.76,171.71,171.71,0,0,0,17.17,8.77c20.05,9.09,42.2,13.61,63.79,17.25q34.74,5.7,69.57,10.68l.18,0c22.18,3.09,44.46,5.57,66.61,8.85,8.84,1,19.64,3.4,28.45.4l-1.89-2.85a70,70,0,0,0-10.66-6.55c-5.1-2.61-10.42-5-17.1-7.75-20.78-8.63-43.1-13.71-65-18.42-23.63-5-47.48-9-71.3-12.91Zm192.15,58.26q35.75,5.4,71.46,11c19.38,3,39.07,6.47,57.7,12.79,7.73,2.64,12.87,4.56,17.72,6.62a73.93,73.93,0,0,1,11.16,5.74l2,2.27c-7.46,2.92-17.31,1.12-24.85.67q-33.18-3.06-66.22-7.11l-.18,0c-23.18-3-46.27-6.51-69.37-10.12-19.21-3-38.79-6.55-57-13.55-7.8-3-13-5.23-17.88-7.64a72,72,0,0,1-11.32-6.75l-2.08-2.67c6.89-3.32,17-1.08,24-.5,21.63,2.8,43.19,6,64.76,9.28l.18,0m-4.11-2-.18,0c-22.09-3.34-44.21-7.1-66.43-9.58-8.57-.72-20.08-3.23-28.46.61l2.37,3.24a75.81,75.81,0,0,0,11.9,7.11c5.63,2.78,11.45,5.23,18.77,8.06,21.78,8.39,45.17,12.65,68.15,16.18,23.68,3.64,47.34,7.21,71.1,10.27l.18,0c22.58,2.75,45.19,5.21,67.85,7.17,9.26.54,20.55,2.5,29.64-.84l-2.19-2.72a76.55,76.55,0,0,0-11.72-6c-5.56-2.35-11.35-4.43-18.62-6.9-22.33-7.52-45.89-11.59-69.11-15.28q-36.62-5.73-73.25-11.33Zm254.49,33.64q38,4.08,75.92,8.42c20.09,2.32,40.45,4.89,60,10.1,7.94,2.12,13.21,3.66,18.15,5.34a74.67,74.67,0,0,1,11.26,4.69c2.66,6.55-21.09,2.9-24.93,2.77q-35.7-2.13-71.33-5.08h-.2q-37.82-3.3-75.53-7.55c-19.86-2.32-40.11-5.19-59.23-11.33-7.87-2.55-13.06-4.43-17.91-6.46a67.14,67.14,0,0,1-11-5.64c-2.63-7.3,20.43-2.65,24.36-2.37q35.12,3.36,70.2,7.1l.19,0m-4.12-1.63-.19,0q-35.94-3.85-71.91-7.38c-9.77-.71-21.32-2.79-31,.16l1.93,2.66a70.1,70.1,0,0,0,11.53,6c5.56,2.35,11.41,4.43,18.81,6.84,22.9,7.28,47,10.89,70.85,13.6q38.66,4.31,77.4,7.64l.2,0q36.54,3,73.12,5.1c10.18.34,21.82,1.85,31.87-1.1l-2.06-2.26a79.06,79.06,0,0,0-11.86-4.87c-5.67-1.91-11.61-3.59-19.07-5.57-23.49-6.11-47.76-9.22-71.83-12.06q-38.87-4.45-77.76-8.72Zm-190.69-44.44q36.9,5.58,73.76,11.37c19.15,3,38.68,6.29,57.14,12.42,7.29,2.44,12.1,4.2,16.57,6.08a59.27,59.27,0,0,1,10,5.17c.94,6.6-20.81,2.32-25.32,2q-34.72-3.39-69.35-7.71l-.19,0q-36.46-4.74-72.77-10.54c-19-3.12-38.39-6.85-56.39-13.89-7.38-2.91-12.2-5-16.65-7.29a54.14,54.14,0,0,1-9.84-6.17c-1-7.3,20.12-1.9,24.61-1.39q34.14,4.82,68.23,10l.19,0m-3.63-1.81-.18,0q-34.93-5.3-69.91-10.31c-9.77-1.15-21-3.66-30.83-1.12l1.39,2.76a57,57,0,0,0,10.35,6.51c5.11,2.61,10.56,5,17.5,7.72,21.53,8.48,44.72,13,67.47,16.67q37.2,5.89,74.55,10.71l.19,0q35.49,4.38,71.07,7.79c10.21.72,21.62,2.59,31.78,0l-1.52-2.38a62,62,0,0,0-10.52-5.39c-5.13-2.14-10.56-4.06-17.41-6.33-22.11-7.29-45.43-11.17-68.36-14.83q-37.77-6-75.57-11.75Zm259.45,35.46q37.74,4.37,75.47,9c19.45,2.39,39.15,4.94,58.16,9.83,7.49,2,12.46,3.34,17.08,4.84a73.08,73.08,0,0,1,10.45,4.14c1.15,5.5-21.3,2-25.44,1.76q-35.76-2.58-71.47-5.85h-.2q-38.16-3.65-76.23-8.11c-19.77-2.38-39.94-5.14-59-11.06-7.55-2.36-12.45-4.09-16.93-5.94a50,50,0,0,1-9.71-5.06c.71-6,21.48-1.77,26.66-1.33q35.52,3.72,71,7.81l.2,0M2162-2017l-.19,0q-36.35-4.21-72.71-8.11c-3.57-.32-33.59-5.18-31.94,1.58a51.85,51.85,0,0,0,10.18,5.35c5.13,2.14,10.67,4,17.77,6.3,22.89,7,47,10.47,70.68,13.27q39,4.53,78.16,8.21l.2,0q36.6,3.3,73.27,5.89c5.58.28,31,4.23,30.33-2.14a78.06,78.06,0,0,0-11-4.3c-5.32-1.7-10.91-3.23-17.95-5-22.75-5.8-46.26-8.85-69.52-11.74q-38.62-4.72-77.27-9.27Zm-940.59-276.1q28.44,8.85,56.5,18.77c13.3,5.2,27.55,10.39,37.41,21.22a57.09,57.09,0,0,1,7.16,10.14,21.68,21.68,0,0,1,2.53,8.51c-4.27,8.86-18.07,4.1-25.86,2.95q-27.66-5.57-55.08-12.14l-.15,0q-28.2-7.07-56-15.3c-13.71-4.16-28.74-9.92-38.24-21.2a48.9,48.9,0,0,1-7.54-12.21,23.91,23.91,0,0,1-1.84-10.81c4.33-10.86,17.82-6.21,26.82-4.71,18.23,4.32,36.24,9.38,54.18,14.76l.15,0m-.86-3.12-.15-.05c-18.4-5.59-36.86-10.74-55.54-15.34-8.12-1.48-29.7-7.44-32.23,5.72a25.52,25.52,0,0,0,1.93,11.46,52.28,52.28,0,0,0,7.91,12.91c11.41,13.47,29.47,20.41,45.9,25.34q28.57,8.36,57.46,15.48l.15,0q28.13,6.66,56.44,12.26c9.5,1.38,25.42,6.78,30.87-3.52a22.22,22.22,0,0,0-2.68-8.83,61.08,61.08,0,0,0-7.51-10.56c-11.31-13-29.13-19.36-44.69-25.44q-28.77-10.22-57.86-19.46Zm205.8,64.29q31.71,9.18,63.21,19c14.08,4.3,30.27,9.11,41.83,18.64a46.11,46.11,0,0,1,7.62,7.9,11.31,11.31,0,0,1,2.31,6.35c-7.25,6.34-21.23,1.45-29.89,0q-30.92-6.3-61.63-13.48l-.16,0q-31-7.52-61.7-16.07c-14.21-4-30.16-9-41.32-19.2-4-3.94-6.3-6.81-7.94-9.86a13.74,13.74,0,0,1-1.78-8.31c6.78-8.22,20.48-2.8,29.47-1q30,7.55,59.82,16.05l.16,0m-.88-2.36-.16,0Q1394.8-2243.1,1364-2251c-7.44-1.57-30.54-9.24-35.36,1.25a14.69,14.69,0,0,0,1.88,8.81c1.87,3.54,4.55,6.72,8.33,10.45,12.9,12.37,32.85,18.25,49.52,23q31.5,8.7,63.25,16.28l.17,0q31.48,7.29,63.15,13.65c9.71,1.66,28.27,8.21,35.74,0a11.51,11.51,0,0,0-2.43-6.58,49.18,49.18,0,0,0-8-8.21c-14-11.23-33.18-17-50-22.31q-32.29-10.08-64.76-19.63Zm233.69,65.39q35.2,8.66,70.33,17.59c15,4.05,31.85,7.47,45.12,16.07a40.72,40.72,0,0,1,7.86,6.53,7,7,0,0,1,2.08,5.11c-9.27,4.85-23.3.27-33.16-1.33q-34.37-6.55-68.5-14.14l-.18,0c-23.32-5.35-46.49-11.2-69.68-17.06-15.63-4.15-32.76-8-46.4-17.15-4.36-3.16-6.82-5.42-8.53-7.74s-2.08-4-1.6-6.09c8.29-5.92,25.41.1,34.2,1.91q34.2,7.91,68.28,16.29l.18.05m-.88-1.79-.18,0q-35-8.58-70-16.8c-8.81-1.83-32.71-10-41-2.28-.44,2-.18,3.84,1.7,6.47s4.84,5.21,8.94,8.22c15.9,11.21,37.15,15.72,55.56,20.53,23.78,5.91,47.51,11.92,71.41,17.37l.18,0q35,7.74,70.15,14.38c10,1.66,30.82,9,39.55,1.52,0-1.63-.36-3.17-2.21-5.33a43.67,43.67,0,0,0-8.24-6.81c-15.94-10.08-35.9-14.36-53.84-19.17q-36-9.18-72-18.1ZM1907.94-2114q35.89,7.17,71.72,14.63c15.29,3.37,31.92,6.07,46,13.38a45.53,45.53,0,0,1,8.25,5.45c1.67,1.53,2.34,2.76,2.38,4.26-9.65,4.16-23.4.29-33.5-1q-35.32-5.4-70.51-11.62l-.19,0q-36.42-6.63-72.63-14.22c-16.21-3.67-33.75-6.87-48.51-15-4.47-2.67-7-4.54-8.64-6.46s-2-3.26-1.32-5c9.86-4.81,26.27.26,36.33,2q35.28,6.62,70.47,13.6l.19,0m-.92-1.52-.19,0q-36.07-7.2-72.22-14c-10.55-1.79-33.26-8.83-43.66-2.38-.6,1.56-.46,3.08,1.38,5.24s4.87,4.31,9.08,6.83c17.35,10,39,13.71,58.2,18q37.16,7.76,74.49,14.5l.19,0q36.06,6.33,72.25,11.81c11.72,1.56,29.14,7,39.91,1.17-.06-1.35-.58-2.64-2.57-4.44a48.57,48.57,0,0,0-8.66-5.68c-16.82-8.55-36.57-12-54.8-16q-36.68-7.66-73.4-15.06Zm321.4,89.41,3.1,1.3q36.72,4.63,73.43,9.46c18.24,2.41,36.74,4.9,54.58,9.57,6.72,1.77,11.14,3,15.2,4.36a59.32,59.32,0,0,1,9,3.61c-1.24,4.26-21.18,1.06-26,.73q-35.13-3-70.2-6.65l-.19,0q-37.64-4-75.17-8.71c-19.05-2.44-38.56-5.07-57-10.76a158.54,158.54,0,0,1-15.16-5.38,30.71,30.71,0,0,1-7.84-4.45c4.43-4.85,22.16-.93,28.85-.27q35.17,4.08,70.32,8.49l.19,0-3.1-1.3m0,0-.19,0q-36-4.55-72-8.8c-5.7-.58-31.7-5.76-34.65.31a31.58,31.58,0,0,0,8.2,4.71,165.89,165.89,0,0,0,15.91,5.7c22.07,6.88,45.44,10,68.3,12.92q38.52,4.79,77.11,8.84l.19,0q36,3.66,72,6.72c6.25.42,28.89,4,30.94-.91a63.18,63.18,0,0,0-9.46-3.75c-4.68-1.51-9.67-2.89-16-4.54-21.32-5.53-43.36-8.51-65.16-11.43q-37.56-5-75.15-9.77ZM2476-1997.35l3.3,1q34.56,3.66,69.1,7.52c17.52,2,35.13,4.07,52.42,7.58,6.82,1.4,11.38,2.38,15.69,3.42,4,1,6.92,1.8,9.94,2.81,5.38,1.79-1.54,2-22.08.5q-32.85-2.46-65.68-5.28l-.18,0q-36-3.2-72-6.87c-18.83-2-37.92-4.09-56.38-8.49-7.09-1.71-11.64-2.94-15.72-4.25a44.39,44.39,0,0,1-8.59-3.52c3-3.84,21-.66,26.56-.2q33.41,3.25,66.77,6.78l.18,0-3.3-1m0,0-.18,0q-34.2-3.63-68.41-7c-7.35-.61-27.47-4.3-32,.23a46.09,46.09,0,0,0,9,3.72c4.67,1.51,9.83,2.89,16.5,4.51,22.15,5.32,45,7.84,67.66,10.18q36.93,3.74,73.91,7h.18q33.65,2.87,67.32,5.34,12.14,1,24.33,1.1,6.62.38,1.85-1.72c-2.77-.91-5.7-1.77-10.5-2.92s-10.08-2.26-16.48-3.56c-20.63-4.16-41.61-6.68-62.51-9.06q-35.34-4-70.69-7.77ZM2306.54-2031c.91.47,1.37.7,2.3,1.16q35.05,4.74,70.1,9.68c16.59,2.46,33.43,4.68,49.61,9.27,5.66,1.63,9.33,2.78,12.62,4a35.73,35.73,0,0,1,6.87,3.18c-4.32,3.49-20.67.44-26.68-.06q-33.93-3.33-67.79-7.24l-.19,0q-36.36-4.28-72.65-9.14c-17.85-2.44-36.12-5-53.37-10.39a103.16,103.16,0,0,1-12.72-4.85c-2.86-1.38-4.45-2.51-5.44-3.88,8-4,22.24-.38,31,.57q34.26,4.29,68.47,8.89l.19,0c-.93-.46-1.39-.69-2.3-1.16m0,0-.18,0q-35.06-4.74-70.15-9.19c-8.95-1-29.23-6-37.26-.7.87,1.25,2.3,2.45,5.66,4.1a109.93,109.93,0,0,0,13.35,5.14c20.61,6.7,42.67,9.56,64.06,12.47q37.24,5,74.56,9.29l.18,0q34.72,3.93,69.49,7.34c7.59.63,26.07,4.09,31.68,0a38.18,38.18,0,0,0-7.28-3.31c-3.78-1.36-7.94-2.62-13.26-4.14-19.27-5.43-39.37-8.13-59.13-11.07q-35.85-5.07-71.72-10Zm235.22,29.6,2.52,1q32,3.75,64,7.67c15.54,1.9,31.2,3.94,46.47,7.45,5.7,1.33,9.49,2.26,13,3.23a75.87,75.87,0,0,1,7.91,2.56c4.16,1.6-2.57,1.61-21.74,0q-30.7-2.73-61.39-5.78h-.17q-33.8-3.41-67.53-7.28c-17.3-2.11-34.74-4.12-51.7-8.27-6.14-1.57-10-2.7-13.28-3.87a22.39,22.39,0,0,1-6.37-3.12c6.34-3.31,20.18-.29,27.47.39q31.57,3.4,63.1,7l.17,0-2.52-1m0,0-.16,0q-32.32-3.77-64.66-7.29c-9.29-.87-24.86-4.34-33.12-.48,1.25,1,3,2,6.64,3.3s8.16,2.62,13.94,4.11c20.29,5.14,41.36,7.53,62.12,9.92q34.64,3.91,69.31,7.4l.17,0q31.44,3.08,62.9,5.85c4.67.36,24.83,3.25,25.72,0a82.63,82.63,0,0,0-8.37-2.68c-4-1.1-8.31-2.12-13.65-3.36-18.19-4.17-36.83-6.59-55.33-8.9q-32.74-4.05-65.51-7.91Zm166.63,28.15q30.56,2.92,61.11,6c16.05,1.62,32.11,3.46,48,6.08,6.76,1.11,11.38,1.9,15.9,2.72,4.26.79,7.44,1.43,11,2.22,6.32,1.4,1.49,1.5-16,.28q-28.6-2-57.19-4.33l-.16,0q-32.48-2.62-64.92-5.51c-17.92-1.63-35.94-3.43-53.65-6.68-7.2-1.34-11.9-2.31-16.24-3.33a86.34,86.34,0,0,1-9.65-2.74c-4.92-1.73,2.63-1.75,22-.12q29.8,2.58,59.58,5.39l.16,0m-3.53-.82h-.16q-30.51-2.91-61-5.59c-5-.37-26.18-3.52-26.55.13a83.84,83.84,0,0,0,10.08,2.92c5,1.18,10.28,2.25,17.05,3.52,21.28,3.95,42.92,6.07,64.46,8q33.3,3,66.63,5.6l.16,0q29.28,2.28,58.58,4.38c19.87,1.38,26.54,1.34,18.82-.34-3.27-.72-6.56-1.39-11.61-2.31s-10.35-1.81-16.69-2.85c-19-3.1-38.1-5.29-57.21-7.27q-31.24-3.18-62.51-6.21Zm197.7,19.13q24.68,2.4,49.34,5c13.68,1.47,27.34,3.15,40.95,5.17,6.41,1,10.91,1.64,15.49,2.35,4.32.66,7.72,1.21,11.8,1.88,7.17,1.18,5,1.21-8.12.1l-44.72-3.83h-.14q-26.86-2.33-53.72-4.72c-16.14-1.45-32.28-3.08-48.32-5.45-7.09-1.06-11.82-1.83-16.35-2.65-4.26-.77-7.36-1.4-10.65-2.19-5.82-1.38-.29-1.4,15.59-.07q24.38,2.1,48.72,4.41l.13,0m-3.65-.69h-.13q-25-2.37-50-4.55c-18.13-1.53-25.92-1.61-18.93.08,3,.72,6.09,1.41,11.13,2.32s10.51,1.8,17.19,2.81c19.28,2.89,38.72,4.8,58.13,6.53q27.57,2.45,55.14,4.8h.13l45.76,3.9c14.9,1.26,18.09,1.3,9.34-.12-3.73-.61-7.31-1.19-12.42-2l-16.22-2.45q-24.26-3.65-48.67-6.2-25.23-2.67-50.48-5.14Zm-144-21.3q27.35,2.89,54.67,6c13.79,1.61,27.56,3.42,41.19,6.11,5.55,1.13,9.35,1.92,13,2.74,3.47.78,6,1.41,8.91,2.19,5.1,1.35.67,1.38-15,0q-25.7-2.25-51.37-4.66h-.14q-29.41-2.8-58.78-5.83c-16-1.67-32.13-3.49-48-6.61-6.19-1.26-10.15-2.17-13.71-3.12a44.09,44.09,0,0,1-7.49-2.55c-3.52-1.59,4.11-1.52,22,.15q27.24,2.61,54.44,5.49l.14,0m-2.72-.81h-.14q-27.9-3-55.81-5.66c-6.18-.52-22.68-3.33-26.65-.19a44.9,44.9,0,0,0,7.81,2.7c4.08,1.1,8.58,2.1,14.41,3.3,19,3.83,38.43,5.92,57.7,7.92q30.15,3.09,60.33,5.94h.15q26.29,2.45,52.59,4.73c17.77,1.51,23.79,1.57,17.55-.07-2.64-.7-5.3-1.37-9.41-2.28s-8.46-1.81-13.66-2.87c-16.17-3.25-32.58-5.43-49-7.31q-27.94-3.21-55.91-6.21Zm174.47,18.85q20.94,2.24,41.84,4.8c11.14,1.36,22.25,3.07,33.24,5.35,5.07,1.06,8.65,1.8,12.3,2.59,3.45.74,6.18,1.35,9.49,2.09,5.83,1.31,4.15,1.39-6.78.28q-18.89-1.93-37.77-3.9h-.11q-23.14-2.4-46.27-4.86c-13.92-1.46-27.86-3.12-41.65-5.51-6-1.06-9.91-1.83-13.6-2.65-3.47-.77-5.92-1.41-8.39-2.21-4.4-1.42,1-1.48,15.1-.21s28.34,2.72,42.49,4.23h.11m-2.77-.74h-.11Q2902-1962,2880.2-1964c-16.08-1.46-23.68-1.47-18.42.24a85.61,85.61,0,0,0,8.77,2.34c4.23.94,8.67,1.79,14.31,2.79,16.63,2.88,33.42,4.82,50.2,6.61q23.74,2.51,47.49,5h.11l38.6,4c12.39,1.26,14.81,1.25,7.7-.34-3-.68-5.91-1.32-10-2.2s-8.13-1.73-12.87-2.72c-13-2.7-26.17-4.76-39.38-6.42q-21.37-2.62-42.8-4.91ZM2362.7-1979.5q38,3.11,76.05,6.48c20.11,1.8,40.38,3.83,60.19,7.89,8.12,1.68,13.55,2.9,18.69,4.23a104.25,104.25,0,0,1,11.9,3.73c4.17,5.65-21.21,2.45-23.85,2.38q-35.85-1.53-71.67-3.67l-.2,0q-38.7-2.44-77.35-5.61c-20.48-1.74-41.22-3.84-61.2-8.88-8.09-2-13.4-3.56-18.35-5.21a72.12,72.12,0,0,1-11.13-4.59c-1.86-6.15,21.24-2.34,25.31-2.14q35.72,2.51,71.41,5.39l.2,0m-4.26-1.3-.2,0q-36.55-3-73.13-5.62c-10.33-.53-21.89-2.16-32.17.36l1.85,2.19a74.39,74.39,0,0,0,11.67,4.85c5.67,1.91,11.66,3.59,19.25,5.53,23.94,6,48.75,8.64,73.29,10.66q39.63,3.19,79.32,5.67h.2q36.72,2.14,73.47,3.68c9.87.22,21.13,1.47,30.93-1.06l-2.49-1.82a109,109,0,0,0-12.54-3.88c-5.91-1.51-12-2.83-19.64-4.39-23.72-4.77-47.89-7.23-72-9.44q-38.91-3.48-77.85-6.72ZM2617.11-1961q35.92,2.41,71.83,5.09c19.36,1.46,38.78,3.16,58,6.21,8.2,1.31,13.75,2.27,19.12,3.31,5.06,1,8.78,1.82,12.86,2.92,7.21,1.92.9,2.54-19.95,1.85q-33.64-1.23-67.28-2.85h-.18q-37.29-1.9-74.53-4.29c-20.33-1.35-40.83-3-60.86-6.92-8.27-1.62-13.75-2.82-18.9-4.12a101.47,101.47,0,0,1-11.82-3.64c-3.81-5.28,20.7-1.85,23.35-1.75q34.11,1.92,68.2,4.19h.19m-4.46-1h-.18q-34.92-2.34-69.86-4.37c-9.75-.4-20.62-1.75-30.36.35l2.32,1.74a105.19,105.19,0,0,0,12.38,3.85c5.9,1.51,12.06,2.84,19.83,4.37,24,4.62,48.56,6.73,72.95,8.3q38.2,2.43,76.45,4.33h.19q34.47,1.63,69,2.86c8.4.16,18.59,1.32,27-.82l-3.35-1.42c-3.72-1-7.55-1.89-13.55-3-6.17-1.18-12.39-2.22-20.09-3.44-22.92-3.61-46.09-5.65-69.21-7.42q-36.75-2.74-73.52-5.29Zm-193.31-27.67q36.6,3.45,73.18,7.09c19.06,1.92,38.23,4,57,7.74,7.62,1.52,12.73,2.61,17.57,3.78,4.56,1.11,7.82,2,11.27,3.23,6.12,2.09-1.14,2.56-22.84,1.37q-34.62-2-69.2-4.54h-.19q-37.71-2.85-75.38-6.28c-19.92-1.87-40.1-4-59.59-8.7-7.75-1.88-12.79-3.26-17.41-4.73a62.2,62.2,0,0,1-10.17-4c.24-4.92,21.22-1.41,25.89-1.1q34.83,2.92,69.64,6.17l.19,0m-3.89-1.15-.19,0q-35.64-3.34-71.32-6.41c-6.29-.43-29.87-4.43-31.09,1.3a64.94,64.94,0,0,0,10.64,4.28c5.3,1.7,11,3.23,18.27,5,23.39,5.57,47.53,8.25,71.43,10.44q38.66,3.48,77.33,6.36h.2q35.45,2.54,70.92,4.56c9.51.4,20,1.66,29.55-.16l-2.39-1.5c-3.15-1.07-6.47-2-11.88-3.35-5.57-1.33-11.31-2.52-18.47-3.93-22.47-4.42-45.34-6.93-68.11-9.25q-37.44-3.77-74.89-7.34Zm246.84,22.2q33.45,2.75,66.89,5.68c17.91,1.59,35.85,3.38,53.63,6.13,7.63,1.19,12.83,2,17.89,2.95,4.78.86,8.33,1.58,12.29,2.5,7,1.6,1.51,1.92-17.73.92q-31.29-1.71-62.57-3.7h-.17q-35.14-2.29-70.24-5c-19.36-1.52-38.83-3.28-58-6.8-7.88-1.47-13.08-2.54-17.94-3.69a102.8,102.8,0,0,1-11-3.14c-5.81-2,1.83-2.24,22.53-.8q32.13,2.33,64.24,4.93h.18m-4.1-.89-.17,0q-32.91-2.68-65.82-5.12c-4.25-.25-29.24-4-27.12,1a104.1,104.1,0,0,0,11.56,3.33c5.56,1.33,11.42,2.52,18.83,3.91,22.93,4.27,46.3,6.36,69.54,8.16q36,2.71,72.06,5h.18q32.05,2,64.11,3.72c8.36.34,16.2.94,24.38,0l-3.41-1.14c-3.62-.83-7.29-1.59-12.94-2.6-5.83-1-11.64-2-18.8-3.06-21.21-3.27-42.59-5.41-64-7.33q-34.22-3-68.44-5.88Zm195.23,23.87q31.64,2,63.25,4.27c17.72,1.29,35.45,2.81,53.07,5.1,8.09,1,13.68,1.82,19.24,2.64,5.24.79,9.26,1.45,13.89,2.32,8.17,1.51,4.07,1.93-13.51,1.26q-29.1-1.15-58.21-2.58H2931q-33.52-1.66-67-3.59c-19.34-1.15-38.75-2.6-57.92-5.52-8.34-1.27-14-2.21-19.34-3.23-5.09-1-8.8-1.79-12.82-2.84-7.12-1.83-.72-2.24,18.75-1.29q30.33,1.59,60.64,3.46h.16m-4.66-.79h-.16q-31.07-1.93-62.13-3.6c-8.12-.32-17.62-1.53-25.81.19l3.21,1.34c3.64,1,7.41,1.86,13.41,3,6.18,1.18,12.47,2.22,20.32,3.43,23,3.52,46.29,5.25,69.51,6.62q34.38,1.95,68.77,3.63h.17q29.82,1.41,59.64,2.6c20,.75,25.85.3,15.9-1.52-4.22-.78-8.42-1.49-14.62-2.41-6.39-.94-12.6-1.78-20.2-2.76-21-2.71-42.15-4.54-63.28-6.1q-32.35-2.31-64.73-4.42Zm202.64,14q25.11,1.92,50.19,4.07,22.59,2,45.11,4.67c7.68.92,13.11,1.58,18.71,2.3,5.3.67,9.56,1.23,14.73,2,9.09,1.26,7.93,1.46-4.83.63q-22.23-1.5-44.47-2.93h-.13q-27.37-1.77-54.75-3.59c-17.37-1.17-34.75-2.55-52-4.78-8.2-1-13.82-1.8-19.38-2.61-5.26-.77-9.26-1.42-13.83-2.24-8.06-1.44-3.82-1.68,11.84-.76q24.36,1.5,48.7,3.28h.13m-4.76-.64h-.13q-25-1.83-49.94-3.4c-17.89-1.06-24.11-.84-14.4.91,4.13.75,8.26,1.45,14.47,2.37,6.38.94,12.66,1.79,20.37,2.77,20.76,2.64,41.65,4.33,62.52,5.72q28.09,1.86,56.18,3.66h.13q22.76,1.47,45.5,3c14.5.95,16.5.77,5.45-.76-4.72-.65-9.23-1.26-15.49-2-6.43-.81-12.42-1.54-19.62-2.4q-26.79-3.21-53.68-5.59-25.66-2.22-51.36-4.2Zm-167.17-18.05q28.29,2.3,56.56,4.77c15.9,1.4,31.79,3,47.61,5.1,7.42,1,12.59,1.66,17.8,2.39,4.91.69,8.75,1.27,13.26,2,8,1.27,5,1.44-10.41.49q-25.82-1.63-51.63-3.34h-.15q-30.37-2.06-60.73-4.25c-18-1.33-36-2.88-53.79-5.46-7.88-1.15-13.17-2-18.26-2.88-4.8-.84-8.32-1.55-12.12-2.43-6.72-1.54-.86-1.69,16.85-.49q27.45,1.9,54.86,4.11h.15m-4.27-.71h-.15q-28.11-2.23-56.23-4.25c-20.21-1.39-28.48-1.31-20.39.58,3.43.81,7,1.57,12.67,2.58,5.83,1,11.77,2,19.19,3,21.42,3.13,43,5,64.62,6.55q31.15,2.23,62.33,4.31h.15q26.42,1.74,52.86,3.39c17.46,1.06,21.82.94,12.14-.59-4.13-.66-8.15-1.26-14-2.08-6-.83-11.71-1.59-18.67-2.49-18.85-2.45-37.76-4.4-56.69-6.1q-28.93-2.57-57.87-4.94Zm177.63,15.66q21.06,2.06,42.09,4.42c12.86,1.47,25.72,3.08,38.56,4.74l16.93,2.17,13.88,1.77c8.76,1.11,8.85,1.13-1.24.08-12.12-1.26-24.25-2.39-36.39-3.52h-.11q-23.39-2.13-46.77-4.14c-15.59-1.36-31.16-2.86-46.69-4.77-7.61-1-12.85-1.63-18.06-2.35-4.92-.68-8.7-1.25-13-2-7.63-1.24-4.17-1.3,9.25-.2q20.74,1.71,41.47,3.75h.11m-4.31-.6h-.11q-21.27-2.09-42.57-3.86c-15.35-1.26-20.55-1.27-11.36.24,3.92.64,7.83,1.25,13.64,2.06,6,.83,11.82,1.59,19,2.49,18.68,2.32,37.44,4.08,56.2,5.71q24,2.07,48,4.22h.11c12.4,1.16,24.8,2.3,37.19,3.6,11.43,1.19,11.74,1.24,1.09-.11l-14.58-1.85-17.73-2.28c-15.26-2-30.52-3.94-45.8-5.67q-21.51-2.45-43.07-4.55ZM-833.07-952.44A625.88,625.88,0,0,1-754-1020c28.15-19.63,61.28-17.23,89.33,1.09,15.23,10,30.16,20.28,43.93,32.22,13.59,11.55,25.75,24.55,37.67,37.78,21.85,24.18,28.85,55.49,11.76,84.54a639.28,639.28,0,0,1-59.78,82.66l-.18.2a627.44,627.44,0,0,1-75.31,71.38c-28.59,21.4-63.64,20.59-93.68,2.33a412.38,412.38,0,0,1-47.88-33.07c-14.55-12.3-27.4-26-39.87-40.33-22.92-25.89-28.17-59.32-9.88-89.3a598.87,598.87,0,0,1,64.62-81.71l.19-.2m-11.82-11-.19.2a601.19,601.19,0,0,0-66.49,83.62c-22,35.82-15.07,76,11.72,107.18a422,422,0,0,0,41.92,42.34,434.39,434.39,0,0,0,50.44,34.79c36.1,21.17,78.15,22.73,112.4-3a637.53,637.53,0,0,0,76.93-73.29l.18-.2a649.58,649.58,0,0,0,60.87-84.79c19.5-34.82,11.69-72.08-14.37-101a462.71,462.71,0,0,0-39.38-39.47,495.05,495.05,0,0,0-46-33.8c-33.55-21.87-72.95-24.14-106.77-1.54a630.2,630.2,0,0,0-81.29,69Zm764.6-653.23A681.6,681.6,0,0,1,1-1663.76c24.5-11,52.77-14.12,76.45.83a209.41,209.41,0,0,1,30.9,21.88,180.93,180.93,0,0,1,24.2,25.9c16.24,19.73,9.23,42.41-6.9,59.66-20.88,21.6-42.54,42-65.39,61.54l-.18.15a881.41,881.41,0,0,1-75.49,55.92c-24.81,16-53.8,18.23-79.6,3.43-12.52-7.56-24.57-15.4-35.58-25.08-10.46-9.2-19.21-19.65-27.76-30.59-16.63-22.11-12.47-47.93,6.74-67a587.17,587.17,0,0,1,71.08-59.39l.2-.14m-8.23-7.78-.2.14a588.35,588.35,0,0,0-73.22,60.51c-23.11,22.9-27.86,54-8.13,80.56A239,239,0,0,0-140.76-1451a301.81,301.81,0,0,0,37.59,26.53c30.35,18.48,66.29,14.1,95.43-4.34a883.76,883.76,0,0,0,77-57.68l.19-.16c23.27-20.1,45.33-41.12,66.57-63.34,18.13-20.18,27.75-48.39,8.1-71.21a273.29,273.29,0,0,0-25.23-26.93A220.64,220.64,0,0,0,86.59-1671c-28.07-17-62.41-14.86-91.42-1.27a686.57,686.57,0,0,0-83.69,47.79Zm-353.9,9.32A690.14,690.14,0,0,1-356-1662.73c26.3-11.06,56-12.37,79.65,5.69,11.09,8.28,21.8,16.76,31.45,26.72a209.47,209.47,0,0,1,24.38,30.9c16.32,22.53,8.3,47.92-9.23,66.89a869.62,869.62,0,0,1-70.58,64.17l-.21.16a817.65,817.65,0,0,1-81.05,56.27c-26.76,15.32-57.76,16.33-83.16-2.47a316.83,316.83,0,0,1-36-30.3c-10.55-10.94-19.22-23.06-27.65-35.66-16.07-25.16-11.76-52.72,9.61-73.4A601.68,601.68,0,0,1-442.64-1615l.22-.14m-8.27-9.19-.22.14a615,615,0,0,0-78.41,62.41c-24.48,24.33-31.85,58.54-11.56,88.14a312.56,312.56,0,0,0,29.17,37.57,336,336,0,0,0,38,32c30.2,22.25,68,21.13,99.71,2.76a835.45,835.45,0,0,0,82.71-58.06l.2-.16a888.5,888.5,0,0,0,71.9-66.1c20.58-22.59,30.13-53.08,10.85-79.91a218.52,218.52,0,0,0-25.42-32.16,240.48,240.48,0,0,0-32.85-27.92c-28.1-20.61-64.05-20.71-95.22-7a705.58,705.58,0,0,0-88.9,48.3Zm430.9-229.34a759,759,0,0,1,86.6-32.45c24.11-6.71,52.1-8.17,73.62,6.76,9.06,6.25,18.06,12.48,25.91,20.28A119.45,119.45,0,0,1,185-1836c14,19.93-2.33,36.55-17.51,48.73-24.11,16.5-48.65,32.06-73.9,46.76l-.21.12c-26.87,15.22-54.16,29.23-82.2,42.18-25.07,11.32-53.13,12.75-76.68-2.71a178.59,178.59,0,0,1-29.73-24,214.84,214.84,0,0,1-21.4-28.07c-14-21.87-1.14-43,17.94-56.23A625.74,625.74,0,0,1-20-1853.56l.22-.11m-6.58-7.06-.22.1a637.63,637.63,0,0,0-80.94,45c-23.28,15.42-37.3,41.63-21.55,67.59a228.11,228.11,0,0,0,22.61,29.66,190.15,190.15,0,0,0,31.41,25.44c27.49,19.23,62.65,16,91.93,3,28.63-13.39,56.53-27.91,83.93-43.67l.2-.12c25.76-15.19,50.8-31.24,75.39-48.25,17.9-14.31,37-34.82,20.79-58.14a124.11,124.11,0,0,0-19.48-24,261.07,261.07,0,0,0-27.08-21.14c-25.77-17.11-59.22-16.68-88-8.34a760.57,760.57,0,0,0-89,32.78Zm331.72,26.67A712.17,712.17,0,0,1,388-1864.3c23.95-6.48,49.69-7.61,72.16,4.24,9.06,5.11,18.08,10.19,26.19,16.76A116.1,116.1,0,0,1,505.53-1824c15,16.88-2.56,32-15.6,41.79q-34.74,22-70.55,42l-.2.11q-38.52,21.08-78.24,39.58c-23.54,10.82-50.62,13.62-74,1-10.29-5.94-20.46-11.86-29.48-19.69-8.37-6.88-15-15.14-21.64-23.62-14.84-19-2-38.37,15.1-49.91A578.18,578.18,0,0,1,305.14-1834l.21-.09m-6.68-5.87-.21.09a590.13,590.13,0,0,0-76.34,42c-20.86,13.7-34.7,37.44-18.11,60.05,6.6,9.42,14.48,17.18,22.86,25A258,258,0,0,0,258-1692c27.53,15.76,60.95,11,88.67-1.44q40.65-19.21,79.88-40.93l.2-.11q36.63-20.7,72-43.33c15.62-11.62,36.07-29.84,18.57-49.8a113.47,113.47,0,0,0-20-20,164.19,164.19,0,0,0-27.4-17.48c-26.07-14.59-58.41-12.72-86.32-5.36a727.37,727.37,0,0,0-84.95,30.56Zm287.19-92.94a764.72,764.72,0,0,1,84.18-15c24.18-2.46,49.34-1.12,71.54,9.56a164.42,164.42,0,0,1,24.8,14.17,98.67,98.67,0,0,1,17.38,15.31c14.69,14.19-10.21,23.77-20.2,27.94q-37.5,12.57-75.22,24.4l-.2.07q-40.7,12.59-81.72,24c-23.78,6.51-49.61,7.71-72.18-3.41-9.15-4.93-18.24-9.84-26.37-16.37a100.87,100.87,0,0,1-18.44-18.88c-13.85-17.16,6.21-29.31,19.77-36.35a608.51,608.51,0,0,1,76.45-25.35l.21,0m-6-4.7-.21.06a602.34,602.34,0,0,0-78.48,25.72c-15.87,8-40.79,23.4-23.67,43.83a106.54,106.54,0,0,0,19.44,20c8.58,6.91,18.15,12.13,27.81,17.33,26.8,13.41,58.24,11.64,86.45,3.83q42-11.84,83.58-24.87l.2-.06q38.61-12.21,76.95-25.18c9.38-3.8,44.51-18.44,23.29-33a184.09,184.09,0,0,0-19.56-15.67,244,244,0,0,0-24.7-15.09c-24.71-14.08-57.28-14.54-84.77-11.89a781,781,0,0,0-86.33,15Zm-238.65-44.58a811.18,811.18,0,0,1,85.54-17c23.74-2.93,48.87-2,70.16,10a143.34,143.34,0,0,1,23.27,15.65,91.77,91.77,0,0,1,15.92,17c13.5,15.88-11,26.93-21.95,32.08q-37.91,14.91-76.3,28.44l-.21.07q-41.36,14.27-83.28,26.59c-23.77,6.88-50.54,8.14-72.45-4.92-8.94-5.71-17.81-11.38-25.49-18.78a100.54,100.54,0,0,1-17.25-21.43c-12.58-18.62,7.41-33.45,22.79-40.13a642.87,642.87,0,0,1,79-27.45l.21-.06m-5.62-5.36-.22.06a656.24,656.24,0,0,0-81.18,27.81c-18.53,8.08-42.06,26.1-27.35,48.33A100.45,100.45,0,0,0,245-1888.63c8.11,7.83,17.45,13.88,26.91,19.91,26.25,15.53,58.41,14,86.82,5.65q42.93-12.84,85.15-27.64l.22-.08q39.27-14,78-29.41c12.9-6,41.86-19.42,26.14-38.18A95.93,95.93,0,0,0,531.56-1976a153,153,0,0,0-24.38-16.33c-25.35-14.17-55.63-15.52-83.87-12.21a824.86,824.86,0,0,0-87.76,17Zm292.69-46.11c20.28-1.82,40.47-2.79,60.82-3.07,18.88,0,37.77,4.09,54.05,13.91a214.51,214.51,0,0,1,20.8,13.84,138.87,138.87,0,0,1,15.8,14.12c11.38,8.69,2.55,19-8.51,20.52-17.05,3.87-34.06,6.91-51.36,9.35l-.15,0c-27.54,3.57-55.06,7.28-82.62,10.64-23.8,2.86-49.24,2.18-70.89-9.11a131.16,131.16,0,0,1-23.57-15.28,80.54,80.54,0,0,1-15.4-16.57c-12.41-16.09,14.18-23.61,24.44-26.62a713.83,713.83,0,0,1,76.44-11.73l.15,0m-5.37-4.26-.15,0A730,730,0,0,0,544.3-2026c-12.39,3.62-43.82,12.86-29.32,32.16a84.65,84.65,0,0,0,16.2,17.56A138.28,138.28,0,0,0,556-1960.13c25.72,13.62,56.68,14.14,84.94,10.65s56.45-7.47,84.68-11.22l.14,0c17.66-2.52,35-5.66,52.4-9.66,12-2.85,24.11-14,10-24.57a145,145,0,0,0-16.52-14.76,225.34,225.34,0,0,0-21.76-14.51c-19.38-11.68-42.08-16.58-64.55-16.71-20.9.26-41.63,1.22-62.46,3ZM-188-1242.55a633.87,633.87,0,0,1,74.06-63.11c24.84-16.67,54.33-20.61,81.22-5.95,13.41,7.1,26.5,14.47,38.81,23.39,11.85,8.59,22.45,18.41,32.93,28.57,21,19.45,22.67,46.31,9,70.53a718.77,718.77,0,0,1-54.11,76.46l-.16.19A682.32,682.32,0,0,1-73.89-1043c-24.64,20.67-56.34,24.76-85.34,10.55-15.4-7.38-30.22-15.32-44.25-25.12a259,259,0,0,1-37-32.25c-21.27-22.08-26.06-51-8.7-77.27a571.77,571.77,0,0,1,61-75.22l.18-.19m-10.7-8.49-.18.18A583.88,583.88,0,0,0-261.8-1174c-19.79,30.91-16,67,10.34,92.82a272.46,272.46,0,0,0,39,33.94,290.12,290.12,0,0,0,46.73,26.5c34.82,16.3,72.89,12,102.35-12.89A696.56,696.56,0,0,0,5.51-1105l.16-.2a720.7,720.7,0,0,0,54.94-78.49c17-28.77,12.94-60.9-11-84.19a375.71,375.71,0,0,0-34.35-29.78,398.89,398.89,0,0,0-40.54-24.49c-31.66-16.55-67.89-13.56-97.1,6.82A647.9,647.9,0,0,0-198.7-1251Zm422.24-355.59a635.9,635.9,0,0,1,76.52-46.62c23.17-11.1,50.51-15.13,74.07-2.72a294,294,0,0,1,30.79,18.26c9,6.44,16.7,14.23,24.4,22.15,16.68,17,10.28,37.86-4.48,53.62-19.42,20.35-39.51,39.74-60.58,58.38l-.17.15c-22.56,19.42-45.82,37.58-70.09,54.81-23,16-50.59,20-76.27,8.16-12.33-6-24.27-12.37-35.37-20.52A178.31,178.31,0,0,1,154.2-1487c-17.93-19.3-13.54-43.16,3.34-61.48a542.77,542.77,0,0,1,65.81-58l.19-.14m-8.28-6.58-.2.14a555.3,555.3,0,0,0-67.82,59.15c-20.81,21.82-24.53,50.74-4,73.93A188.44,188.44,0,0,0,173-1452.5a216,216,0,0,0,37.39,21.68c30.23,15,64.39,8.38,91.4-10,24.75-17.76,48.44-36.47,71.42-56.46l.18-.15c21.44-19.17,41.89-39.1,61.65-60,16.45-18.45,25.21-44.33,5.25-63.93a252.65,252.65,0,0,0-25.44-23.06,310.76,310.76,0,0,0-32.17-19.09c-28.07-14.1-61-10.67-88.61,3a650.52,650.52,0,0,0-78.76,47.37Zm344.79-186.61a648.76,648.76,0,0,1,80.54-28.06c24-6,49.53-6.72,72.35,4,9.29,4.65,18.54,9.27,27,15.32a118.64,118.64,0,0,1,20,17.63c15.85,15.16-1.75,28.94-14.1,37.36q-34,19.39-68.62,37.44l-.19.1q-37.39,19.14-75.61,36.43c-23,10.29-49.25,13.24-72.63,2.48-10.32-5.09-20.55-10.17-29.84-17.06a119.82,119.82,0,0,1-22.4-20.81c-15.62-16.71-3.65-35,12.25-45.74a520.53,520.53,0,0,1,71.05-39l.21-.09m-6.93-5.18-.21.09a532.27,532.27,0,0,0-73,39.71c-18.94,12.83-33,35.14-14.64,55.09,7,8.41,15.12,15.2,23.66,22a268.1,268.1,0,0,0,31.5,18c27.58,13.46,59.82,8.63,87-3.24q39.06-17.88,77.19-37.57l.19-.1q35.41-18.59,70.07-38.48c14.88-10,35.23-26.48,16.84-44.47a124.6,124.6,0,0,0-20.87-18.36c-8.9-6.31-18.57-11.19-28.3-16-26.6-13.23-58.5-11.93-86.62-5.05A662.9,662.9,0,0,0,553.12-1805Zm280.73-80.73c18.08-3,36.22-4.77,54.5-6a101.61,101.61,0,0,1,54.21,12.66,254.69,254.69,0,0,1,23.61,14.4,186.59,186.59,0,0,1,19.08,15.17c9.27,6.53,12.89,19.93-.83,23.91-14,5.53-28.32,9.46-42.93,12.95l-.13,0q-40,8.65-80.05,17c-24.18,4.94-50.22,5.23-73-5.36-9.34-4.62-18.65-9.2-27.18-15.25a109,109,0,0,1-19.38-17.22c-15.1-15.45,5.57-26.48,18.08-32.16a533,533,0,0,1,73.86-20l.14,0m-6.42-4.37-.13,0a544,544,0,0,0-75.83,20.44c-14.65,6.48-40.13,20.39-21.59,38.82a114,114,0,0,0,20.43,18.17c9,6.39,18.78,11.25,28.63,16.09,27.23,12.53,58.46,12.11,87.33,6.16q41-8.6,82-17.56l.12,0c14.88-3.63,29.47-7.69,43.7-13.41,14.69-6,12.81-20.21.87-28.7A195.59,195.59,0,0,0,973-1865.93,244.78,244.78,0,0,0,948.31-1881a122.85,122.85,0,0,0-64.82-15.14c-18.79,1.23-37.46,3-56.06,6.06Zm-8.84-84c18.72-2.18,37.45-3.2,56.28-3.75,18.3-.19,36.51,3.75,52.5,12.84a222.08,222.08,0,0,1,21.24,13.3,149.15,149.15,0,0,1,16.51,13.73c10.54,7.49,6.15,18.64-5.65,20.64-15.5,4.15-31,7.46-46.8,10.17l-.13,0c-18,2.91-36.2,4.44-54.41,5.6a105.47,105.47,0,0,1-55.41-12.91,239.7,239.7,0,0,1-23.64-14.38A149.91,149.91,0,0,1,761-1943.56c-11.87-8.24-5.29-19.77,7-21.41,16.74-3.88,33.43-6.81,50.46-9.07l.15,0m-5.58-4.08-.14,0c-17.53,2.29-34.7,5.26-51.92,9.2-15.88,2.32-20.62,15.15-8.46,25.69a160.87,160.87,0,0,0,19.08,15.52,237.35,237.35,0,0,0,25,15.16A127.24,127.24,0,0,0,863-1897.09c18.6-1.21,37.16-2.81,55.57-5.83l.13,0c16.14-2.81,31.93-6.23,47.74-10.53,13.78-2.52,19.06-15.83,6.63-24.74a156,156,0,0,0-17.26-14.34,233.44,233.44,0,0,0-22.23-13.93c-19-10.8-41-15.56-62.74-15.39-19.37.51-38.56,1.69-57.82,3.73Zm190.21-15.18c18.1-1.54,36.19-2,54.35-2.1,17.25,0,35,4,50.11,12.33a205.71,205.71,0,0,1,19.74,12,126.32,126.32,0,0,1,15,12.27c9.13,8.5,6.75,14.33-7.39,17.93-15.4,3.39-30.79,6.11-46.41,8.31l-.13,0c-17.61,2.07-35.15,3.46-52.86,4.33a99.74,99.74,0,0,1-51.73-12.23,210.17,210.17,0,0,1-21.3-13.23,131.1,131.1,0,0,1-16.07-13.53c-11.36-8.1-2.65-18,8-19,16.14-3.15,32.21-5.42,48.57-7.07h.14m-5.1-3.72-.14,0c-16.8,1.65-33.31,3.94-49.89,7.13-12.48,1.31-23.1,13.11-9.58,22.84a137.52,137.52,0,0,0,16.92,14.24,226.5,226.5,0,0,0,22.46,14c18.86,10.53,40.48,15.28,62,14.64,18.07-.88,36.1-2.12,54-4.55l.13,0c16-2.3,31.68-5.12,47.41-8.64,11.41-1.51,21.69-12.6,8.76-21.48a132.54,132.54,0,0,0-15.71-12.8,219.75,219.75,0,0,0-20.68-12.57c-18.26-10-39.24-14.46-59.95-14.79-18.64,0-37.2.48-55.78,2Zm-174.63-55.24c18.94-1.25,37.84-1.42,56.8-1.13,17.47.32,35.39,4.66,50.4,13.73a197.21,197.21,0,0,1,19.13,12.73,122.84,122.84,0,0,1,14.34,12.84c11.08,8.37.17,17.1-9.22,18-16.31,3.08-32.58,5.47-49.07,7.34l-.14,0c-18.59,2-37.24,2.76-55.92,3.24-18.54.15-37.11-3.81-53.21-13.24a186.4,186.4,0,0,1-20.89-13.73,111.78,111.78,0,0,1-15.23-14c-11.71-9.51,1.15-18.52,11-19.36,17.27-2.93,34.44-5,51.9-6.41h.14m-4.84-3.94h-.15a524.92,524.92,0,0,0-53.32,6.48c-13.21,1.32-25.1,11.36-13.24,23.25a117.13,117.13,0,0,0,16,14.75,199,199,0,0,0,22,14.47c19.25,11.23,41.67,16,63.83,15.83,19.1-.52,38.17-1.38,57.18-3.43h.14c16.85-2,33.47-4.43,50.12-7.63,11-1.16,24-11.59,10.91-21.53a126.52,126.52,0,0,0-15-13.4,210,210,0,0,0-20-13.34c-18.1-10.9-39.26-15.77-60.23-16.49-19.47-.35-38.83,0-58.28,1Zm192.68-5.32c18.37-.5,36.68,0,55,.83,16.85.84,34.1,5,48.82,13.38a191.21,191.21,0,0,1,18.27,11.47,109.66,109.66,0,0,1,13.48,11.38c8,7.8,4.78,12.69-10.15,15.14-16.13,2.21-32.23,3.87-48.46,5.08h-.14c-18.09,1.24-36.2,1.53-54.33,1.52-17.25-.25-35.36-3.84-50.31-12.84a175.47,175.47,0,0,1-19.29-12.59,101.51,101.51,0,0,1-13.93-12.71c-11.36-9,2.77-16.34,11-16.66,16.61-2,33.12-3.33,49.84-4h.14m-4.54-3.56h-.14c-17.17.66-34.11,1.93-51.16,4-8.29,2.1-27.93,8.24-13.28,20a107.41,107.41,0,0,0,14.66,13.39,186.26,186.26,0,0,0,20.32,13.28c18.22,10.57,39.4,15.05,60.31,15.35,18.55,0,37.09-.37,55.6-1.68h.14c16.61-1.28,33.07-3,49.57-5.32,8.44-.45,25.73-8.64,12.06-18.11a115.11,115.11,0,0,0-14.13-11.88,207.83,207.83,0,0,0-19.15-12c-17.72-10-38.2-14.77-58.39-16.07-18.81-.93-37.58-1.45-56.41-1Zm179.7,61c18.14-.83,36.25-.73,54.4-.26,17,.49,34.35,4.13,49.54,11.82a199,199,0,0,1,18.9,10.63,109.86,109.86,0,0,1,14,10.69c8.38,7.36,5.3,12.18-9.36,14.9-15.8,2.51-31.58,4.51-47.51,6.07l-.13,0c-17.68,1.42-35.3,2.29-53,2.73-17.06.15-34.88-3.12-49.91-11.51a192.63,192.63,0,0,1-19.82-11.91,116.61,116.61,0,0,1-14.74-12.07c-8.77-8.3-5.74-13.67,9.08-16.28,16.13-2.32,32.16-3.85,48.42-4.82h.14m-4.82-3.31h-.14c-16.68,1-33.13,2.48-49.68,4.83-10.11.53-24.68,10.1-10.87,19.55a122,122,0,0,0,15.51,12.72,204.37,204.37,0,0,0,20.87,12.57c18.26,9.83,39.15,14,59.77,13.78,18.12-.46,36.21-1.23,54.25-2.94h.14c16.28-1.66,32.43-3.74,48.59-6.36,8.11-.59,25.34-9.13,11.17-17.83a115.16,115.16,0,0,0-14.68-11.14,208.62,208.62,0,0,0-19.83-11.11c-18.27-9.21-39-13.34-59.3-14.21-18.61-.52-37.19-.67-55.8.14Zm189-1.33c18.85,0,37.65.79,56.47,1.89,17.16,1,34.73,4.42,50.46,11.52a200.94,200.94,0,0,1,18.49,9.27,97.15,97.15,0,0,1,13.27,9.09c7.78,6.21,3.81,9.94-11.89,11.61q-25.1,2.2-50.23,3.36h-.14c-18.32.77-36.64.85-55,.68-16.86-.33-34.52-3.19-49.68-11a185.86,185.86,0,0,1-19-10.49,103.8,103.8,0,0,1-13.82-10.51c-8.16-7.18-4.66-11.57,10.71-13.23,16.72-1.36,33.36-2,50.13-2.25h.15m-4.66-2.89h-.14c-17.2.17-34.26.83-51.41,2.2-6.68,0-27.79,6.8-12.78,15.91a110.56,110.56,0,0,0,14.54,11.08,197.36,197.36,0,0,0,19.93,11.08c18.36,9.1,39.11,12.71,59.46,13.09,18.76.12,37.51,0,56.26-.84h.14q25.76-1.26,51.41-3.56c7.26-1.27,26.38-3.09,14.25-13.88a100.41,100.41,0,0,0-13.9-9.47,215.27,215.27,0,0,0-19.41-9.69c-18.9-8.48-39.89-12.36-60.45-13.85-19.3-1.17-38.56-1.91-57.9-2.06Zm-167.87-49.83c18.55.29,37,1.4,55.53,2.84,16.82,1.35,34,5.27,49.1,13a201.91,201.91,0,0,1,18,10.16,101.85,101.85,0,0,1,13,9.87c7.67,6.72,3.87,10.61-11.6,12.12-16.56,1.27-33.09,2.13-49.69,2.62h-.14c-18.25.46-36.5.16-54.75-.38-16.83-.7-34.49-4-49.33-12.38a171.06,171.06,0,0,1-18.46-11.3,96.14,96.14,0,0,1-13.22-11.25q-11.55-11.53,11.56-13.74c16.64-1.15,33.18-1.61,49.87-1.56h.14m-4.43-3.15h-.14c-17.1-.09-34.06.34-51.13,1.49-7.24-.09-27.84,6.43-13.85,16.53a100.35,100.35,0,0,0,13.89,11.86,180.73,180.73,0,0,0,19.43,11.92c18,9.82,38.74,14,59.08,14.79,18.69.52,37.38.78,56.07.27h.14c17-.55,33.91-1.46,50.87-2.8,4.85,0,28.83-5.62,13.85-14.48a106.89,106.89,0,0,0-13.65-10.3c-6-3.81-11.77-7-18.88-10.62-18.13-9.23-38.62-13.74-58.77-15.61-19-1.52-37.89-2.7-56.91-3Zm194.07,9.83c19.48,1.21,38.89,2.92,58.3,5,17.32,1.88,35,5.63,50.92,12.8,7.64,3.44,12.88,6,18,8.92a96.26,96.26,0,0,1,12.68,8.43c7.33,5.67,2.71,8.54-13.91,9q-26.41.36-52.82-.14h-.14c-19.09-.42-38.15-1.4-57.21-2.58-16.94-1.19-34.67-4.31-50-12a178.89,178.89,0,0,1-18.14-10,91.92,91.92,0,0,1-12.8-9.76c-7.4-6.61-3.19-10.19,12.87-10.71,17.39-.18,34.69.23,52.06,1.06h.15m-4.4-2.75h-.14c-17.81-.88-35.53-1.34-53.35-1.18-7.36.72-26.93,1.16-15.37,12.89a95,95,0,0,0,13.45,10.3,188.58,188.58,0,0,0,19.06,10.54c18.51,9.09,39.39,13,59.82,14.39q29.28,1.76,58.59,2.52h.14c18,.31,36.07.43,54.11,0,5.9-.48,27.81.15,16.66-10.76a100.64,100.64,0,0,0-13.29-8.78c-5.91-3.31-11.75-6.11-18.94-9.33-19.17-8.59-40.22-12.92-61-15.38-19.89-2.16-39.78-4-59.75-5.24ZM1007.64-1916c17.59-2.35,35.08-3.88,52.8-4.82a99.11,99.11,0,0,1,51.07,11.81,219.13,219.13,0,0,1,21.32,13,148.24,148.24,0,0,1,16.75,13.6c9.77,6.92,8.21,18.5-3.81,21.29a379.58,379.58,0,0,1-43.2,11.6l-.13,0c-16.71,3.11-33.34,5.35-50.26,7a94.78,94.78,0,0,1-52.8-12.33,260.29,260.29,0,0,1-23.56-14.42,173.06,173.06,0,0,1-18.52-14.83c-10.42-7.12-9.24-19.52,4-21.86a442.48,442.48,0,0,1,46.26-10l.13,0m-5.69-4h-.14a453.81,453.81,0,0,0-47.58,10.15c-16.62,3-15.55,17.09-4.77,26.19A180.89,180.89,0,0,0,969-1868a253.62,253.62,0,0,0,24.87,15.22c19.23,10.72,41.23,16.35,63.28,14.8,17.27-1.7,34.25-4,51.3-7.27l.12,0a383.48,383.48,0,0,0,44.06-12c14-3.47,16.06-17.29,4.5-25.55a154.63,154.63,0,0,0-17.51-14.18,230.62,230.62,0,0,0-22.32-13.59c-18.62-10.22-39.93-14.76-61.1-14.16-18.17.89-36.22,2.26-54.24,4.83Zm180.19-19c17.57-1.76,35-2.78,52.71-3.29,17-.37,34.51,3.18,49.63,11a197,197,0,0,1,19.79,11.45,119.71,119.71,0,0,1,15.06,11.86c9.15,8.26,6.93,14.2-6.68,18.21-14.7,4-29.57,7-44.57,9.68l-.12,0c-16.81,2.57-33.56,4.45-50.51,5.8-17.21,1-35.11-2.58-50.15-11.19a221.84,221.84,0,0,1-21.28-12.95,142.6,142.6,0,0,1-16.4-13.3c-10.72-7.31-5.14-17.8,6.08-19.23,15.37-3.5,30.67-6.09,46.31-8.07l.13,0m-5.21-3.57-.13,0c-16.06,2-31.78,4.6-47.57,8.15-13.21,1.74-20,14.3-7.28,23.06a152.51,152.51,0,0,0,17.28,14,238,238,0,0,0,22.44,13.67,111,111,0,0,0,60.06,13.42c17.32-1.42,34.44-3.4,51.61-6.09l.12,0c15.32-2.78,30.5-5.89,45.52-10.06,11.33-2,20.62-13.32,8-21.83a123.4,123.4,0,0,0-15.75-12.36,207.23,207.23,0,0,0-20.73-12c-18.23-9.41-39-13.36-59.42-13.23-18.1.43-36.12,1.29-54.12,3.23Zm184.57-11.11c18.1-1.2,36.17-1.47,54.3-1.39,16.88.13,34.32,3.21,49.66,10.4a186.83,186.83,0,0,1,18.79,9.88,99.7,99.7,0,0,1,13.76,10.06c8.17,7,4.88,11.76-9.75,14.8-15.66,2.86-31.33,5.24-47.13,7.23H1441c-17.37,1.88-34.7,3.23-52.14,4.15-16.69.6-34.19-2.22-49-10.2a194.29,194.29,0,0,1-19.73-11.35,119.53,119.53,0,0,1-14.86-11.61c-8.93-8-6.23-13.33,8.31-16.22,15.91-2.63,31.75-4.47,47.82-5.75h.13m-4.88-3.11h-.14c-16.49,1.28-32.74,3.12-49.07,5.78-10.18.72-23.72,10.61-9.9,19.46a126.07,126.07,0,0,0,15.65,12.25,209.06,209.06,0,0,0,20.78,12c18,9.33,38.5,13,58.67,12.2,17.81-.86,35.61-2.23,53.31-4.4l.13,0c16.16-2.08,32.17-4.58,48.19-7.55,7.29-.76,25.84-9.15,11.69-17.71a101.91,101.91,0,0,0-14.39-10.47,193.47,193.47,0,0,0-19.71-10.32c-18.47-8.61-39.25-12.07-59.5-12.5-18.59-.14-37.14.1-55.71,1.28Zm190.3-4.77c19.21-.28,38.39.21,57.58,1,17.21.75,34.94,3.55,50.93,10.14a186.85,186.85,0,0,1,18.11,8.4,82.51,82.51,0,0,1,12.63,8.3c7.28,5.68,2.77,9.22-13.31,11.07q-25.5,2.5-51,4.13h-.14c-18.4,1.1-36.82,1.59-55.25,1.84-16.61.06-34.12-2.21-49.24-9.5a182.68,182.68,0,0,1-18.67-9.74,101.43,101.43,0,0,1-13.67-9.85c-8.09-6.75-4.57-11,11-12.87,17-1.58,33.88-2.5,50.93-2.94h.14m-4.66-2.66h-.14c-17.48.41-34.81,1.3-52.22,2.89-5.8.06-28.48,6.74-13.08,15.47a108,108,0,0,0,14.4,10.4,194.52,194.52,0,0,0,19.65,10.3c18.29,8.53,38.83,11.45,58.87,11.34q28.29-.45,56.5-2h.14q26.16-1.74,52.22-4.37c6.74-1.19,26.82-2.43,16-13.22a85.55,85.55,0,0,0-13.21-8.63,198.65,198.65,0,0,0-19-8.77c-19.23-7.87-40.44-11.08-61.07-12.2-19.69-.87-39.35-1.31-59.07-1.18Zm18.54-41.64c20.18,1,40.3,2.51,60.43,4.34,17.82,1.77,35.93,4.9,52.65,11.55,7.81,3.12,13.12,5.46,18.31,8.08a90,90,0,0,1,12.6,7.63c7.2,5.13,2.1,7.74-15.14,8.25-18.17.4-36.33.4-54.5.23H1635q-29.31-.46-58.57-1.82c-17.13-.91-35-3.52-50.81-10.69a190.4,190.4,0,0,1-18.49-9.13,96.81,96.81,0,0,1-13.17-9c-7.66-6.08-3.48-9.45,13-10.07,17.93-.31,35.76-.06,53.68.6h.15m-4.57-2.5h-.16c-18.33-.74-36.64-1.15-55-.72-6.71.65-27.62.9-15.5,12.13a101.31,101.31,0,0,0,13.85,9.47,203.61,203.61,0,0,0,19.44,9.65c19,8.39,40.13,11.68,60.75,12.75q30,1.32,60,1.74h.15c18.61.14,37.21.11,55.82-.34,5.29-.39,28.56.78,18.19-9.83a92.84,92.84,0,0,0-13.2-7.94c-6-3-11.88-5.53-19.23-8.45-20-7.94-41.75-11.72-63.11-13.89-20.64-1.92-41.27-3.49-62-4.57Zm215.3,16.43c22.15,2,44.23,4.4,66.31,7.06,18.83,2.39,38,5.63,55.9,12,7.87,2.81,13.14,4.87,18.17,7.13a81.43,81.43,0,0,1,11.81,6.37c6.48,4.19-.08,5.7-19.42,4.94q-30.22-1.39-60.42-3.26h-.17q-31.93-2.08-63.82-4.73c-17.91-1.59-36.18-4.28-53-10.81-7.78-3-13.08-5.32-18.25-7.91a89.81,89.81,0,0,1-12.58-7.53c-7.17-5.06-2-7.4,16.23-6.92,19.75.78,39.42,2,59.11,3.66h.17m-4.5-2.15-.17,0c-20.17-1.68-40.33-3-60.56-3.82-4.72.07-29.79-2.61-19.31,8.36a94.41,94.41,0,0,0,13.23,8c6,3,11.87,5.5,19.18,8.36,20.14,7.82,42,11,63.39,12.87q32.64,2.65,65.31,4.74h.17q30.93,1.86,61.88,3.25c7.81.09,18.89,1.74,26.11-2.69l-2.74-3.15a83.81,83.81,0,0,0-12.37-6.64c-5.76-2.58-11.67-4.83-19.07-7.46-21.54-7.62-44.45-11.54-67-14.44s-45.28-5.37-68-7.33Zm-181.11-46.79c21.12,2.07,42.18,4.55,63.22,7.3,18.27,2.52,36.8,6.09,54,12.91,7.8,3.1,13.08,5.38,18.19,7.9a90.81,90.81,0,0,1,12.29,7.18c6.93,4.75,1.16,6.62-17.23,6q-28.92-1.25-57.8-3.13h-.16q-30.83-2.17-61.57-5.07c-17.65-1.78-35.61-4.91-52-12a193.77,193.77,0,0,1-18.13-8.78,88.2,88.2,0,0,1-12.52-8.35c-7.13-5.6-2.24-8.2,15.15-7.72,18.84.7,37.6,2.09,56.37,3.76h.16m-4.4-2.39h-.16c-19.23-1.73-38.45-3.19-57.74-3.94-5.46.11-28.74-2.07-18.06,9.32a92.33,92.33,0,0,0,13.14,8.81,201.07,201.07,0,0,0,19,9.27c19.57,8.51,41.07,12.22,62.18,14.32q31.5,2.91,63.06,5.09h.15q29.61,1.88,59.23,3.12c4.33,0,29.82,3.32,20.69-7.14a96,96,0,0,0-12.88-7.48c-5.87-2.87-11.79-5.37-19.12-8.27-20.65-8.14-42.84-12.45-64.74-15.51q-32.35-4.29-64.8-7.59Zm226.76,26.61c23.36,2.92,46.68,6.08,69.93,9.76,19,3.09,38.21,6.68,56.38,13.11,7.88,2.8,13.15,4.83,18.18,7a85.09,85.09,0,0,1,11.81,6.16c6.48,4-.3,5.22-20,3.59q-32.18-2.92-64.3-6.27l-.18,0q-34-3.65-67.88-7.83c-18.62-2.36-37.57-5.56-55.19-12.28-7.86-3-13.16-5.27-18.27-7.76a85.53,85.53,0,0,1-12.18-7.11c-6.79-4.7-.82-6.38,18.64-4.91,21,1.8,42,4,62.9,6.5l.18,0m-4.39-2.1-.18,0c-21.45-2.57-42.91-4.85-64.44-6.72-7.18-.31-18.85-2.6-25.31,2.36l3.11,3.59a88.4,88.4,0,0,0,12.81,7.5c5.86,2.88,11.8,5.36,19.19,8.19,21,8.06,43.7,11.85,66,14.66q34.73,4.23,69.51,7.92l.17,0q32.88,3.4,65.81,6.36c8,.43,19,2.48,26.8-1.38l-2.71-3a89.29,89.29,0,0,0-12.38-6.42c-5.76-2.51-11.68-4.73-19.09-7.34-21.82-7.65-44.87-11.93-67.63-15.66-23.81-3.84-47.7-7.08-71.62-10.1Zm200.84,51.34q35.57,3.63,71.1,7.5c19.58,2.17,39.53,4.76,58.45,10.43,7.92,2.4,13.16,4.15,18.08,6.08a66.92,66.92,0,0,1,11.2,5.45l1.88,2.28c-7.44,3.33-17.33,2-25.05,1.87q-32.92-1.54-65.78-4.08l-.17,0q-34.17-2.88-68.2-6.92c-18.86-2.31-38.08-5.19-56.1-11.42-7.77-2.71-13-4.73-18-7a80.55,80.55,0,0,1-11.81-6.33c-6.52-4.17,0-5.55,20.64-3.92q31.82,2.79,63.6,6h.17m-4.39-1.87-.17,0c-21.74-2.2-43.48-4.33-65.24-6.26-8-.42-19.66-2.63-27.35,1.61l2.82,3.17a86.55,86.55,0,0,0,12.44,6.68c5.76,2.57,11.63,4.79,18.93,7.34,21.52,7.47,44.46,10.86,67,13.6q34.89,4.1,69.87,7h.18c22.46,1.73,44.92,3.16,67.43,4.1,9.48.13,20.85,1.56,30-2.27l-2.08-2.72a68.55,68.55,0,0,0-11.75-5.69c-5.64-2.2-11.55-4.11-19-6.34-22.73-6.76-46.62-9.84-70.11-12.47q-36.45-4-72.91-7.77Zm255.11,21.76q38.57,2.43,77.11,5.21c20.58,1.53,41.46,3.31,61.58,8.12,8.16,2,13.54,3.41,18.54,5a63.88,63.88,0,0,1,11.25,4.62c1.79,6.83-21.36,4.1-26,4.13q-36.24-.7-72.45-2.24h-.19q-38.09-1.8-76.11-4.51c-19.75-1.5-40-3.52-59.08-9-7.85-2.29-13.06-4-18-5.91a68.74,68.74,0,0,1-11.31-5.42c-.65-.75-1.31-1.5-2-2.26,7.63-3.24,17.87-1.78,25.7-1.61q35.37,1.7,70.72,3.89h.19m-4.39-1.56h-.2q-36.2-2.27-72.42-4.08c-9.51-.22-21.28-1.85-30.5,1.9l2.24,2.73a72.53,72.53,0,0,0,11.89,5.72c5.64,2.2,11.5,4.09,18.86,6.25,22.83,6.65,47,9.07,70.58,10.84q39,2.76,78,4.56h.2q37.14,1.53,74.29,2.22c10.65,0,23.33,1.5,33.2-3l-2-2a66.24,66.24,0,0,0-11.82-4.81c-5.75-1.84-11.83-3.41-19.51-5.24-24.15-5.61-49.09-7.82-73.77-9.7q-39.48-2.86-79-5.42Zm-199.76-37.62q37.29,3.79,74.55,7.88c20.14,2.23,40.61,4.82,60.17,10.3,8.08,2.29,13.44,4,18.47,5.78a73.13,73.13,0,0,1,11.51,5.16l1.94,2.13c-7.93,3.06-18.07,1.69-26.17,1.5q-34.8-1.74-69.52-4.43h-.19q-36.48-3-72.83-7.1c-19.36-2.26-39-5.25-57.58-11.51-7.91-2.68-13.19-4.67-18.21-6.84a81.24,81.24,0,0,1-11.73-6.1c-6.37-4,.57-5,21.69-3.22,22.58,2,45.15,4.17,67.71,6.44l.19,0m-4.35-1.78-.18,0c-23.12-2.35-46.23-4.64-69.37-6.7-8.53-.53-20.05-2.74-28.43.91l2.62,2.94a85.54,85.54,0,0,0,12.34,6.44c5.77,2.5,11.7,4.7,19.12,7.24,22.13,7.52,45.64,11.11,68.78,13.8q37.26,4.14,74.6,7.19l.19,0q35.61,2.7,71.27,4.44c9.89.21,21.59,1.68,31.22-1.83l-2.17-2.55a76,76,0,0,0-12.09-5.37c-5.78-2.08-11.82-3.89-19.42-6-23.5-6.46-47.91-9.58-72.08-12.32q-38.19-4.18-76.4-8.17Zm263.19,23.52q38.74,2.73,77.46,5.78c20.64,1.66,41.49,3.57,61.76,8,8.3,1.83,13.82,3.18,19,4.66a82.63,82.63,0,0,1,11.89,4.23c3.34,6.36-21.38,3.39-25,3.37q-36.43-1-72.85-2.84h-.2q-38.88-2.07-77.69-5c-20.45-1.6-41.22-3.65-61.08-9-8.12-2.19-13.5-3.83-18.54-5.63a72.43,72.43,0,0,1-11.5-5.08l-1.92-2.07c8.13-2.82,18.35-1.34,26.56-1.06q36,2.05,71.87,4.55l.2,0m-4.43-1.45h-.2q-36.78-2.58-73.6-4.76c-10-.36-21.77-2-31.59,1.23l2.16,2.5a74.75,74.75,0,0,0,12.07,5.37c5.78,2.08,11.83,3.89,19.45,6,23.78,6.3,48.59,8.94,73.06,10.78q39.8,2.94,79.64,5h.2q37.33,1.79,74.69,2.83c10.24.1,22.66,1.75,32.24-2.29l-2.38-1.77a88.22,88.22,0,0,0-12.52-4.4c-6-1.69-12.18-3.15-20-4.85-24.29-5.2-49.19-7.55-73.91-9.58q-39.65-3.15-79.32-6Zm-563.46,5.83c20.86.87,41.65,2.21,62.46,3.88,17.91,1.57,36.22,4.22,53.2,10.39,7.6,2.77,12.69,4.84,17.57,7.15a71,71,0,0,1,11.53,6.72c6.37,4.5.42,6.76-17.53,7.25-18.74.39-37.48.5-56.22.47h-.15q-29.86-.19-59.71-1.11c-16.93-.61-34.76-2.63-50.53-9.27a182,182,0,0,1-17.95-8.25,89.48,89.48,0,0,1-12.67-8.16c-7.33-5.56-2.81-8.71,14.28-9.38,18.54-.53,37-.27,55.57.3h.15m-4.48-2.25h-.16c-19-.62-38-.93-57-.41-6.07.56-28.3.21-17,11.3a93.07,93.07,0,0,0,13.34,8.63,193.73,193.73,0,0,0,18.87,8.73c19,7.76,40,10.33,60.38,11q30.53.85,61.06,1h.16q28.77,0,57.54-.59c5.14-.33,28.55,1.62,21.11-8.62a73.06,73.06,0,0,0-12.05-7c-5.58-2.64-11.29-4.88-18.44-7.48-20.39-7.36-42.33-10.57-63.82-12.5-21.35-1.76-42.68-3.17-64.08-4.11ZM1961.34-1947c22.88,1.94,45.7,4.48,68.51,7.12,18.37,2.16,37.13,4.78,54.8,10.48,7.46,2.43,12.39,4.21,17,6.16a58.36,58.36,0,0,1,10.42,5.51c5.47,3.62-2,5-21.52,4.15q-31.24-1.65-62.47-3.65h-.17q-32.76-2.13-65.49-4.63c-17.68-1.41-35.82-3.59-52.62-9.58-7.42-2.66-12.44-4.69-17.3-7a76.09,76.09,0,0,1-11.62-6.63c-6.52-4.45-.69-6.48,18.46-5.87,20.65.88,41.23,2.23,61.83,3.91h.18m-4.29-1.9-.18,0c-21.11-1.74-42.21-3.15-63.38-4.07-7.23,0-18.72-1.72-24.91,3.6l3,3.52a80.92,80.92,0,0,0,12.26,7c5.58,2.63,11.22,4.85,18.19,7.36,20,7.18,41.7,9.73,62.82,11.4q33.48,2.5,67,4.61h.17q32,2,63.91,3.65c8.84.14,19.44,1.53,27.86-2.24l-1.86-2.75a59.77,59.77,0,0,0-10.91-5.75c-5.27-2.22-10.83-4.16-17.86-6.43-21.25-6.8-43.74-9.91-65.83-12.53-23.39-2.72-46.79-5.27-70.24-7.38Zm244.57,21.44q37.4,2.24,74.78,4.83c19.86,1.41,40.21,3.1,59.55,8.13,7.71,2,12.73,3.55,17.33,5.22a45.87,45.87,0,0,1,10,4.83c-.21,7-21.15,4.42-26.78,4.49q-35.13-.54-70.22-2h-.19q-36.22-1.68-72.36-4.36c-18.44-1.44-37.39-3.43-55.12-9-7.26-2.29-12.1-4-16.69-5.94a63.17,63.17,0,0,1-10.59-5.52c-5.73-3.67,1.31-5,22.39-4.21,22.58,1,45.14,2.2,67.7,3.5h.19m-4.18-1.62-.19,0c-23.1-1.36-46.21-2.64-69.33-3.66-8.87-.15-20.23-1.73-28.73,2.21l2.17,2.82a66.51,66.51,0,0,0,11.17,5.82c5.26,2.22,10.7,4.12,17.51,6.29,21.15,6.67,43.72,9,65.73,10.77q37,2.73,74.1,4.41h.19q36,1.46,72,2c6.27,0,34.46,2.43,32.2-5.4a48.07,48.07,0,0,0-10.52-5c-5.28-1.91-11-3.55-18.23-5.45-23.27-5.92-47.54-8-71.43-9.73q-38.31-2.65-76.65-5Zm265.93,13.18q39.45,1.34,78.88,3.09c20.59,1,41.53,2.1,61.74,6.39,8,1.71,13.17,3,17.92,4.43a49.94,49.94,0,0,1,10.36,4.21c-.66,6.39-22.36,4.33-28.1,4.46q-37.38.06-74.74-.64h-.2q-39.33-.87-78.62-2.54c-19.81-.91-40.22-2.12-59.52-7-7.54-1.94-12.51-3.42-17.11-5.08a53,53,0,0,1-10.31-4.81c-1-7,21.25-4.29,26.25-4.32q36.63.66,73.25,1.83h.2m-4.26-1.38h-.2q-37.5-1.21-75-1.94c-3.24,0-34.94-2.32-31.26,5.17a54.54,54.54,0,0,0,10.83,5.07c5.28,1.92,10.86,3.53,17.93,5.37,23.13,5.93,47.37,7.16,71.1,8.43q40.27,1.7,80.57,2.56h.21q38.33.68,76.65.6c6.44-.13,35.71,1.83,33.69-5.35a51.43,51.43,0,0,0-10.91-4.39c-5.46-1.65-11.34-3-18.85-4.63-24.26-5-49.27-6.46-74-7.65q-40.39-1.82-80.8-3.23Zm58.45-17.5q39,1.66,78.07,3.7c20.75,1.12,41.7,2.49,62.15,6.38,8.38,1.6,13.93,2.79,19.14,4.13a80.37,80.37,0,0,1,11.89,3.87c3,6.13-21.5,3.75-25.28,3.8q-36.81-.27-73.6-1.19h-.2q-39.51-1.11-79-3c-20.63-1-41.61-2.4-61.78-7.07-8.11-1.89-13.48-3.32-18.5-4.91a70.32,70.32,0,0,1-11.43-4.56c-2.65-6.73,21.27-3.71,25.35-3.69q36.49,1,73,2.5h.2m-4.54-1.28h-.2q-37.35-1.54-74.7-2.64c-10.31-.11-22.9-1.86-32.48,2.46l2.2,2a74.53,74.53,0,0,0,12,4.82c5.76,1.83,11.79,3.4,19.4,5.19,24.15,5.49,49.21,7.31,73.89,8.49q40.47,1.86,81,3h.2q37.74.9,75.48,1.15c10.4-.12,22.84,1.24,32.56-2.89l-2.34-1.68a86.71,86.71,0,0,0-12.51-4c-6-1.52-12.25-2.81-20.13-4.31-24.5-4.53-49.53-6.24-74.38-7.62q-40-2.1-79.94-3.86Zm266.53,10.72q37,1.23,74,2.86c20,.91,40.12,2.14,59.91,5.23,8.46,1.33,14.14,2.33,19.58,3.45a123.19,123.19,0,0,1,12.85,3.26c7.06,2.19.2,3.26-21.36,3.24q-34.68-.18-69.35-.85H2855q-38.27-.82-76.49-2.17c-20.6-.78-41.43-1.88-61.73-5.67-8.31-1.56-13.84-2.74-19.08-4.06a93.36,93.36,0,0,1-12.09-3.79c-4.36-6,20.82-3.26,23.68-3.26q35.05.63,70.09,1.75h.19m-4.74-1.05h-.19q-35.88-1.14-71.77-1.85c-9.82,0-21.21-1.06-30.85,1.93l2.49,2a97.33,97.33,0,0,0,12.67,4c6,1.52,12.21,2.82,20,4.3,24.32,4.46,49.24,5.92,73.92,6.8q39.21,1.35,78.44,2.18h.2q35.54.64,71.09.82c8.88-.13,19.81.82,28.55-2.17l-3.1-1.73a131.51,131.51,0,0,0-13.53-3.4c-6.26-1.27-12.63-2.35-20.58-3.59-23.69-3.62-47.69-5.13-71.61-6.26q-37.86-1.68-75.74-3Zm-205.09-23.33q37.83,2,75.65,4.39c20.32,1.29,40.76,2.86,60.85,6.3,8.45,1.46,14.12,2.54,19.54,3.73a120.64,120.64,0,0,1,12.71,3.41l2.55,1.45c-7.7,2.43-17.35,1.43-25.07,1.42q-35.53-.7-71-2h-.19q-38.79-1.47-77.53-3.57c-20.78-1.18-41.78-2.71-62.18-7-8.35-1.76-13.88-3.09-19.09-4.55a87.85,87.85,0,0,1-11.93-4.14c-3.65-6.11,21.12-2.84,24.34-2.78q35.63,1.46,71.21,3.32h.19m-4.6-1.15h-.2q-36.45-1.93-72.91-3.48c-10-.23-21.56-1.55-31.48,1.25l2.32,2.06a91.51,91.51,0,0,0,12.51,4.38c6,1.69,12.18,3.15,20,4.83,24.44,5.08,49.57,7.06,74.45,8.42q39.75,2.1,79.51,3.59h.2q36.42,1.23,72.84,1.94c9.38,0,20.51,1.06,29.79-1.72l-2.94-1.74a129.91,129.91,0,0,0-13.4-3.55c-6.22-1.36-12.59-2.52-20.53-3.88-24.05-4-48.44-5.94-72.75-7.53q-38.7-2.43-77.43-4.57Zm254.7,13.39q34.57,1.65,69.14,3.6c19.09,1.11,38.23,2.52,57.19,5.16,8.43,1.18,14.18,2,19.82,3,5.31.91,9.29,1.71,13.74,2.77,7.85,1.84,2.45,2.58-17.22,2.23q-32.1-.69-64.19-1.72h-.18q-36.2-1.23-72.36-2.87c-20.23-1-40.59-2.27-60.6-5.61-8.48-1.42-14.17-2.48-19.6-3.65-5.12-1.11-8.82-2.07-12.8-3.32-7-2.18,0-2.9,21.09-2.26q32.91,1.13,65.8,2.64h.17m-4.8-.91h-.18c-22.46-1-44.92-2-67.39-2.77-8.91-.16-19.45-1.35-28.33,1l3,1.66c3.59,1.14,7.35,2.19,13.39,3.51,6.23,1.35,12.61,2.53,20.58,3.87,24,3.95,48.38,5.62,72.64,6.72q37.11,1.66,74.23,2.9h.18q32.9,1,65.79,1.71c8.59,0,16.28.49,24.4-1.28l-4-1.41c-4.06-1-8.18-1.81-14.47-2.88-6.47-1.1-12.89-2.05-20.82-3.15-22.64-3.13-45.48-4.82-68.28-6.17q-35.37-2-70.75-3.74Zm207.49,21.3q32.43,1.18,64.82,2.76c18.22.93,36.47,2.24,54.53,4.77,8.31,1.17,14,2,19.62,3,5.29.93,9.32,1.75,13.87,2.85,8,1.92,3.53,2.75-14.53,2.54q-29.87-.48-59.72-1.23h-.17q-34.3-.88-68.6-2.17c-19.57-.75-39.26-1.88-58.62-4.94-8.37-1.32-14-2.32-19.47-3.43-5.14-1-8.91-2-13.06-3.17-7.34-2.09-.94-3,19-2.66q31.08.6,62.15,1.65h.17m-4.92-.87h-.17q-31.83-1.08-63.67-1.73c-8,0-18.25-1.1-26.22,1.55l3.37,1.63c3.75,1.1,7.61,2.1,13.67,3.35,6.25,1.28,12.58,2.37,20.44,3.63,23.22,3.68,46.82,5,70.28,5.91s46.92,1.58,70.38,2.2h.17q30.6.75,61.19,1.23c20.57.24,27-.73,17.19-3-4.16-1-8.33-1.88-14.61-3-6.45-1.12-12.79-2.08-20.59-3.17-21.57-3-43.35-4.59-65.09-5.71q-33.16-1.64-66.34-2.87Zm206.49,9.6q25.26,1.52,50.47,3.45,22.92,1.8,45.72,5.06c7.84,1.14,13.35,2,19,2.93,5.35.89,9.64,1.66,14.78,2.68,9,1.78,7.76,2.33-5,1.7q-22.34-1.17-44.67-2.37h-.14q-27.61-1.48-55.23-3c-17.43-1-34.91-2.34-52.18-4.94-8.19-1.2-13.84-2.09-19.47-3.07-5.3-.92-9.38-1.72-14.1-2.75-8.32-1.79-4.23-2.41,11.58-1.91q24.57.9,49.13,2.24h.13m-5-.77h-.13q-25.17-1.36-50.37-2.32c-18.05-.58-24.07.12-14,2.3,4.27.93,8.49,1.8,14.76,2.89,6.46,1.12,12.75,2.1,20.46,3.24,20.76,3.07,41.72,4.72,62.66,5.92q28.33,1.58,56.66,3.09h.14l45.72,2.42c14.54.73,16.7.12,5.72-2-4.69-.92-9.21-1.76-15.53-2.81-6.5-1.07-12.59-2-19.94-3.08-18.08-2.63-36.26-4.59-54.46-6.07q-25.82-2-51.66-3.54Zm-176.27-17.29q28.93,1.58,57.85,3.48c16.86,1.12,33.71,2.59,50.47,4.69,8.17,1,13.85,1.78,19.61,2.61,5.43.78,9.7,1.46,14.72,2.35,8.83,1.55,6.12,2-9.32,1.51q-26.18-1-52.33-2.11h-.16q-31-1.36-62.11-2.9c-18.71-1-37.47-2.25-56-4.83-8.45-1.18-14.2-2-19.85-3-5.33-.9-9.32-1.68-13.83-2.68-7.95-1.74-2.71-2.27,15.15-1.64q27.86,1.05,55.69,2.53h.15m-5-.74h-.15q-28.53-1.49-57.07-2.64c-20.38-.73-27.88-.16-18.29,2,4.07.92,8.18,1.76,14.47,2.83,6.47,1.11,12.91,2.07,20.85,3.18,22.29,3.12,44.8,4.66,67.27,5.8q31.86,1.56,63.73,2.94h.15q26.79,1.13,53.59,2.13c17.58.61,21.63.06,10.88-1.81-4.58-.81-9.06-1.54-15.48-2.46-6.61-1-12.92-1.77-20.58-2.73-20-2.49-40.07-4.24-60.16-5.61q-29.59-2-59.21-3.6ZM3217.4-1915q20.88,1.79,41.72,4.06c13.47,1.49,26.92,3.17,40.36,5,7.54,1,12.94,1.75,18.64,2.54,5.39.75,9.85,1.38,15.4,2.2,9.74,1.44,10.48,1.67.88.74-11.8-1.17-23.62-2.17-35.44-3.18h-.11c-15.57-1.29-31.14-2.49-46.71-3.69-16.1-1.24-32.18-2.75-48.19-4.81-8.13-1-13.81-1.82-19.57-2.64-5.44-.78-9.71-1.44-14.78-2.26-8.92-1.45-6.3-1.76,6.83-1q20.45,1.27,40.86,3h.11m-5-.66h-.11q-21-1.8-41.94-3.13c-15-.92-19.16-.61-8.41,1.16,4.59.75,9,1.46,15.48,2.38,6.61,1,12.92,1.79,20.59,2.79,19.25,2.49,38.59,4.27,57.94,5.76,16,1.22,32,2.45,47.92,3.78h.11c12.08,1,24.16,2,36.22,3.25,10.89,1.07,10.43.86-1.4-.88-5.07-.75-9.82-1.43-16.19-2.32-6.53-.91-12.47-1.72-19.52-2.66-16-2.15-32-4.21-48-6q-21.33-2.32-42.71-4.17Zm-483.18,6.13q38.79.87,77.56,2.19c20.36.73,41,1.72,61.07,5.3,8.15,1.47,13.51,2.58,18.5,3.83a68.2,68.2,0,0,1,11.22,3.7c1.61,5.94-21.37,4-25.78,4.11q-36.7.23-73.41-.14h-.2q-39.58-.51-79.15-1.63c-20.39-.79-41.12-1.49-61.17-5.7-7.81-1.66-13-2.93-17.74-4.36a61.45,61.45,0,0,1-10.74-4.16c-1.11-6.34,21.61-4,26.38-4.1q36.64.21,73.26,1h.2m-4.45-1.16h-.2q-37.5-.76-75-1c-3,0-35.23-1.68-31.52,4.9a63.06,63.06,0,0,0,11.27,4.39c5.48,1.65,11.27,3,18.6,4.61,23.95,4.94,48.76,6.13,73.15,6.84q40.57,1.13,81.16,1.62h.2q37.65.34,75.28.11c5.49-.14,35.06.9,30.82-4.94a70.87,70.87,0,0,0-11.82-3.86c-5.74-1.44-11.79-2.64-19.45-4-24.09-4.19-48.69-5.42-73.07-6.34q-39.71-1.36-79.42-2.29Zm261.58,6.28q35.43.78,70.83,2.06c19.08.73,38.31,1.83,57.19,4.88,8.12,1.33,13.55,2.33,18.76,3.47a104.68,104.68,0,0,1,12.28,3.36c6.73,2.27.26,3.43-20.24,3.51q-33.16,0-66.32-.44h-.19q-37-.56-74-1.56c-19.89-.58-40.06-1.46-59.68-5-8-1.46-13.26-2.56-18.28-3.81a88.23,88.23,0,0,1-11.59-3.62c-4-5.84,20.16-3.57,23.19-3.62q33.91.12,67.83.79h.18m-4.65-1h-.18q-34.74-.69-69.46-.86c-9.62.16-20.75-.71-30.14,2.41l2.35,1.93a92.06,92.06,0,0,0,12.15,3.82c5.74,1.43,11.7,2.64,19.17,4,23.52,4.2,47.62,5.37,71.47,6q37.92,1,75.86,1.58h.18q34,.42,68,.43c8.32-.17,18.92.75,27.05-2.41l-3-1.81a114,114,0,0,0-12.93-3.51c-6-1.3-12.09-2.4-19.72-3.64-22.57-3.64-45.53-5-68.34-5.84q-36.25-1.31-72.5-2.14Zm232.87,7.38q29.32,1.11,58.61,2.76A459.16,459.16,0,0,1,3323-1890c7.8,1.31,13.15,2.3,18.48,3.42,5,1,8.88,2,13.28,3.23,7.74,2.18,4.18,3.08-11.75,2.76q-26.78-.66-53.54-1.55h-.15q-31.5-1.1-63-2.39c-18.29-.79-36.7-2-54.76-5.1-7.89-1.37-13.26-2.4-18.47-3.53-4.92-1.08-8.56-2-12.62-3.27-7.19-2.16-1.43-3.12,17-3q28.5.42,57,1.38h.15m-4.8-.91h-.15q-29.2-1-58.4-1.42c-8.57.06-15.9-.36-23.85,1.84l3.43,1.69c3.68,1.13,7.41,2.16,13.21,3.44,6,1.3,12,2.42,19.4,3.71,21.66,3.75,43.74,5.17,65.67,6.12q32.3,1.32,64.61,2.44h.15q27.42.9,54.84,1.59c18.14.38,23.26-.67,13.84-3.31-4-1.14-8-2.15-14-3.4-6.11-1.27-12.07-2.36-19.39-3.59a563.52,563.52,0,0,0-59.41-6.27q-30-1.7-60-2.84Zm180.57,10.49q20.46,1.74,40.83,4.31c12.95,1.69,25.85,3.8,38.64,6.42,7.12,1.43,12.16,2.51,17.43,3.7,5,1.12,9.07,2.09,14.07,3.37,8.75,2.24,9,2.85-.5,1.87-11.66-1.25-23.33-2.36-35-3.47h-.11q-23.07-2.16-46.14-4.13c-15.47-1.35-30.9-3.17-46.17-6-7.55-1.41-12.82-2.43-18.15-3.55-5-1-9-2-13.64-3.12-8.22-2-5.31-2.72,7.9-2.13q20.4,1,40.73,2.71h.11m-4.83-.9h-.11q-20.87-1.79-41.8-2.77c-15.1-.68-19.58.11-9.65,2.56,4.23,1,8.34,2,14.29,3.27,6.11,1.28,12,2.4,19.08,3.72,18.34,3.4,36.92,5.53,55.49,7.17q23.67,2.07,47.33,4.25h.1c11.94,1.15,23.87,2.3,35.79,3.59,10.78,1.13,10.91.48.27-2.24-4.55-1.17-8.88-2.22-14.77-3.56-6-1.37-11.6-2.55-18.26-3.91-15.21-3.1-30.55-5.74-46-7.68q-20.85-2.64-41.79-4.4ZM2156-2069.44q35.11,5.85,70.17,12c15.11,2.79,31.08,5,45.34,11a57.49,57.49,0,0,1,8.74,4.51c1.86,1.27,2.73,2.28,3.08,3.52-9.08,3.56-22.17.26-31.65-.78q-34.62-4.39-69.16-9.45l-.19,0q-36.26-5.45-72.38-11.63c-16.36-3-33.73-5.53-49.08-12.34-4.6-2.21-7.18-3.77-9-5.37s-2.14-2.72-1.59-4.16c10.07-4.19,25.67.1,35.9,1.52q34.83,5.41,69.6,11.17l.18,0m-1.06-1.28-.18,0q-35.64-5.92-71.31-11.51c-10.91-1.53-32.4-7.58-43.19-1.85-.52,1.31-.3,2.58,1.64,4.38s5.07,3.59,9.4,5.69c18.17,8.4,39.5,11.28,58.95,14.83q37.08,6.3,74.26,11.84l.19,0q35.4,5.13,70.88,9.6c11.07,1.23,27.52,6.06,37.64.89-.34-1.12-1.09-2.18-3.31-3.67a64.9,64.9,0,0,0-9.17-4.71c-17-7-36-10-54-13.15q-35.86-6.29-71.78-12.33Zm241.21,38q32.88,4.67,65.72,9.56c14.43,2.13,29.42,4.2,43.27,9a86,86,0,0,1,9.27,3.77,11.51,11.51,0,0,1,4.12,3c-7.37,3.12-19.81.26-27.68-.48q-32.28-3.54-64.5-7.52l-.18,0q-34.5-4.38-68.91-9.32c-16.11-2.49-32.81-4.57-48.27-10a49.12,49.12,0,0,1-9.56-4.42c-1.88-1.25-2.6-2.25-2.42-3.46,10.22-3.22,22.79-.15,33.25,1q32.88,4.31,65.72,8.91l.17,0m-1.29-1.08-.17,0q-33.64-4.76-67.34-9.19c-10-1.17-30.19-6.41-40.06-1.27-.19,1.11.29,2.17,2.5,3.66a52.19,52.19,0,0,0,10,4.68c18.41,6.75,38.79,9.09,58,12q35.34,5,70.73,9.5l.18,0q33,4,66.09,7.64c9.59.89,23.87,4.15,32.84.54a12.47,12.47,0,0,0-4.39-3.08,96.54,96.54,0,0,0-9.74-3.93c-16.5-5.74-34.3-8-51.48-10.74q-33.59-5-67.21-9.83Zm222.21,30.4q29.17,3.59,58.32,7.41c13.22,1.77,26.6,3.6,39.43,7.36,4.31,1.34,7.12,2.28,9.63,3.25a27.55,27.55,0,0,1,5.23,2.59c2.51,1.6-4.19,1.58-21.91-.09-18.87-1.8-37.72-3.79-56.57-5.85l-.15,0q-31.12-3.48-62.2-7.35c-15.32-1.93-30.87-3.91-45.78-8.07a70,70,0,0,1-10.17-3.66c-2.16-1-3.22-1.89-3.57-2.93,8.47-3,19.9-.36,28.7.49q29.46,3.29,58.88,6.85l.16,0m-1.55-.95-.15,0q-30.16-3.66-60.35-7.05c-10.85-1-24.19-4-34.66-.6.29,1,1.16,1.85,3.7,3.1a75.32,75.32,0,0,0,10.68,3.87c17.79,5.23,36.77,7.37,55.09,9.68q31.91,3.93,63.85,7.49l.16,0c19.3,2.09,38.61,4.12,57.94,5.95,20.14,1.89,29,2,25.88.09a29.05,29.05,0,0,0-5.56-2.7c-2.88-1.12-6.06-2.16-10.09-3.41-15.15-4.6-31.2-6.76-46.85-8.8q-29.8-3.93-59.64-7.62ZM2807-1981.5q23.94,2.65,47.85,5.58c11.16,1.36,22.45,3,33.25,6.24,4,1.24,6.75,2.12,9.33,3a62.91,62.91,0,0,1,6,2.49c3.32,1.55-1,1.7-14.81.45-15.14-1.4-30.27-2.93-45.39-4.49l-.13,0Q2817-1971,2791-1974c-13.72-1.56-27.63-3.29-41.05-6.6a96.66,96.66,0,0,1-10.37-3.16,11.9,11.9,0,0,1-4.58-2.62c-1.62-1.67,6.31-1.72,22.75-.19s32.74,3.26,49.1,5l.13,0m-1.68-.89h-.12q-25.18-2.71-50.37-5.16c-8.13-.65-20.21-3.26-27.58.22.76.87,2,1.68,4.76,2.77a99.5,99.5,0,0,0,10.91,3.32c16.2,4,32.93,6,49.47,7.92,17.82,2,35.64,4,53.48,5.9h.13c15.48,1.6,30.95,3.16,46.44,4.59,15.68,1.42,21.41,1.33,17.33-.55-1.72-.81-3.49-1.57-6.36-2.61s-6-2-9.75-3.2c-12.83-3.81-26.15-5.78-39.4-7.47q-24.45-3-48.94-5.73Z" transform="translate(1520.34 2492.19)"></path> </svg> 